<svg width="266" height="44" viewBox="0 0 266 44" fill="none" xmlns="http://www.w3.org/2000/svg">
<g clip-path="url(#clip0_1001_5320)">
<path d="M73 22V44H133H193V22V0H133H73V22ZM190.995 22V42.019L133.032 41.9981L75.058 41.9668L75.0264 21.9687L75.0053 1.98104H133H190.995V22Z" fill="#979797"/>
<path d="M83.343 10.6768V11.2398L83.7968 11.3128C84.0396 11.344 84.3984 11.4066 84.5884 11.4379L84.9261 11.49L84.905 21.9895L84.8734 32.4786L84.1135 32.5621L83.343 32.6559V33.2711V33.8862H87.3536H91.3641V33.2711V32.6559L90.6042 32.5621L89.8338 32.4786L89.8021 27.7033L89.781 22.9384H95.0581H100.335V27.672C100.335 31.6237 100.314 32.4161 100.187 32.4578C100.103 32.4891 99.7019 32.5516 99.2902 32.5933L98.5409 32.6663V33.2711V33.8862H102.657H106.773V33.2711V32.6559L106.066 32.5829C105.686 32.5412 105.306 32.4891 105.222 32.4578C105.106 32.4161 105.084 30.5393 105.084 21.9478V11.49L105.507 11.4275C105.739 11.3962 106.119 11.3336 106.351 11.3023L106.773 11.2398V10.6768V10.1137H102.657H98.5409V10.6768V11.2398L99.0475 11.3023C99.3219 11.344 99.723 11.3962 99.9446 11.4275L100.335 11.49V15.963V20.436H95.0581H89.781V15.963V11.49L90.2348 11.417C91.4802 11.2294 91.3641 11.3023 91.3641 10.6768V10.1137H87.3536H83.343V10.6768Z" fill="#979797"/>
<path d="M112.989 10.4057C110.794 11.5317 111.67 14.8057 114.161 14.8057C114.91 14.8057 115.491 14.5346 115.976 13.982C116.768 13.0644 116.768 11.855 115.966 10.9374C115.227 10.072 114.034 9.86348 112.989 10.4057Z" fill="#979797"/>
<path d="M121.232 10.6246V11.1355L121.95 11.2189L122.657 11.3128L122.689 21.9687L122.71 32.6142L122.425 32.6768C122.256 32.708 121.929 32.7602 121.686 32.7914L121.232 32.8644V33.3753V33.8862H124.979H128.726V33.3753V32.8644L128.282 32.7914C128.029 32.7602 127.702 32.708 127.544 32.6768L127.248 32.6142V21.364V10.1137H124.24H121.232V10.6246Z" fill="#979797"/>
<path d="M135.723 12.7622L133.58 13.3982V15.1916V16.9954H131.944H130.309V17.7774V18.5593H131.881H133.464L133.496 24.8883C133.538 31.9366 133.538 31.8636 134.266 32.8646C135.375 34.366 138.689 34.5224 142.636 33.2503L143.29 33.0314V32.4579V31.8845L142.974 31.9574C142.794 31.9992 142.045 32.0304 141.306 32.0304C139.385 32.0409 138.773 31.8115 138.309 30.8835L138.066 30.3935L138.034 24.4712L138.003 18.5593H140.018H142.024V17.7774V16.9954H140.018H138.013V14.5451C138.013 13.2001 137.981 12.0949 137.939 12.1053C137.886 12.1157 136.894 12.4077 135.723 12.7622Z" fill="#979797"/>
<path d="M151.945 16.5366C150.361 16.7451 148.388 17.5271 147.28 18.3925C145.982 19.4143 144.937 21.0409 144.451 22.7821C144.124 23.9499 144.04 26.5461 144.282 27.9328C144.631 29.8722 145.201 31.0712 146.351 32.2181C147.723 33.584 149.612 34.2513 152.472 34.366C155.491 34.5015 157.96 33.7091 159.755 32.0409C161.454 30.4665 162.245 28.6418 162.361 26.0665C162.435 24.4295 162.277 23.1887 161.823 21.875C161.359 20.5091 160.916 19.8105 159.913 18.82C159.227 18.1319 158.879 17.8921 158.066 17.4854C156.683 16.8181 155.617 16.5783 153.792 16.5262C152.979 16.5053 152.145 16.5158 151.945 16.5366ZM153.844 17.8295C155.079 18.0589 155.923 18.7575 156.536 20.0712C157.201 21.4892 157.433 22.8655 157.433 25.4826C157.433 30.7063 156.145 33.0627 153.264 33.0731C152.219 33.0835 151.459 32.7916 150.815 32.1243C149.475 30.7688 148.821 27.62 149.095 23.929C149.369 20.2276 150.499 18.2257 152.504 17.8295C153.127 17.7148 153.222 17.7148 153.844 17.8295Z" fill="#979797"/>
<path d="M175.501 16.6929C174.182 16.8597 172.557 17.5791 171.174 18.6114C170.752 18.9241 170.351 19.1848 170.298 19.1848C170.245 19.1848 170.203 18.6948 170.203 18.09V16.9952H167.195H164.187V17.5583V18.1213L164.694 18.1839C164.968 18.2256 165.317 18.2777 165.485 18.309L165.77 18.3715V25.4929V32.6142L165.169 32.6768C164.187 32.7914 164.187 32.7914 164.187 33.3753V33.8862H167.987H171.786V33.3649C171.786 33.073 171.755 32.8436 171.712 32.8332C171.66 32.8227 171.322 32.7706 170.942 32.6976L170.256 32.5829V26.5355V20.4881L170.784 20.1441C171.079 19.9564 171.691 19.654 172.156 19.4768C172.884 19.1848 173.127 19.1431 173.95 19.1327C174.995 19.1327 175.48 19.3099 176.029 19.8834C176.863 20.7488 176.979 21.7185 176.937 27.8388L176.905 32.5829L176.219 32.6976C175.839 32.7706 175.501 32.8227 175.459 32.8332C175.406 32.8436 175.375 33.073 175.375 33.3649V33.8862H179.174H182.974V33.3753C182.974 32.7914 182.974 32.7914 182.003 32.6872L181.401 32.6142L181.369 26.5459C181.338 20.5403 181.327 20.4777 181.084 19.7583C180.757 18.7677 180.441 18.2568 179.807 17.6938C179.185 17.1412 178.393 16.818 177.338 16.6824C176.493 16.5677 176.419 16.5677 175.501 16.6929Z" fill="#979797"/>
<path d="M110.362 17.5061V18.017L110.868 18.0796C111.143 18.1213 111.491 18.1734 111.66 18.2047L111.945 18.2673L111.924 25.4199L111.892 32.5829L111.206 32.6976C110.826 32.7706 110.488 32.8227 110.446 32.8332C110.393 32.8436 110.362 33.073 110.362 33.3649V33.8862H114.172H117.971L117.939 33.4066C117.897 32.8332 117.823 32.7706 116.99 32.6872L116.377 32.6246V24.8047V16.9952H113.369H110.362V17.5061Z" fill="#979797"/>
</g>
<defs>
<clipPath id="clip0_1001_5320">
<rect width="120" height="44" fill="white" transform="translate(73)"/>
</clipPath>
</defs>
</svg>
