<svg width="32" height="41" viewBox="0 0 32 41" fill="none" xmlns="http://www.w3.org/2000/svg">
<g clip-path="url(#clip0_1001_5422)">
<path d="M2.28216 12.7488C1.86529 12.7488 1.50153 12.7608 1.14042 12.7461C0.460692 12.7183 0.0212561 12.2948 0.0119629 11.6124C-0.00529586 10.2383 -0.00396826 8.86292 0.0119629 7.48885C0.0199285 6.8224 0.430157 6.42412 1.09661 6.37101C1.19485 6.36305 1.29575 6.36437 1.39399 6.36305C2.0932 6.35685 2.5552 6.01345 2.78001 5.33283C3.25263 3.90699 3.72526 2.48115 4.20054 1.0553C4.49394 0.17776 4.73955 0.00384418 5.69276 0.00384418C12.036 0.00384418 18.3793 0.00384418 24.7226 0.00384418C25.2696 0.00384418 25.8152 -0.00412142 26.3622 0.00649938C27.0698 0.0197754 27.3791 0.24945 27.6048 0.922543C28.1611 2.58204 28.7279 4.23889 29.2563 5.90635C29.3758 6.28339 29.5484 6.40819 29.9215 6.36968C30.2003 6.34181 30.4844 6.35375 30.7645 6.375C31.4296 6.42412 31.8093 6.77991 31.8199 7.45301C31.8425 8.86026 31.8438 10.2688 31.8173 11.6761C31.8053 12.3386 31.3659 12.7156 30.6941 12.7528C30.3211 12.7727 29.8219 12.6705 29.6108 12.8683C29.3917 13.0741 29.4449 13.5759 29.3878 13.9503C28.4359 20.0918 27.4827 26.2319 26.5348 32.3734C26.1869 34.6276 25.8537 36.8832 25.5098 39.1388C25.3797 39.9978 25.0279 40.2925 24.1411 40.2925C18.6594 40.2925 13.1764 40.2925 7.69478 40.2925C6.80131 40.2925 6.48667 40.0044 6.35125 39.1229C5.70604 34.925 5.0502 30.7285 4.40366 26.5306C3.82483 22.7735 3.25396 19.0151 2.67911 15.258C2.55432 14.4415 2.42156 13.6263 2.28349 12.7515L2.28216 12.7488ZM27.3897 12.7807H4.4581C5.7618 21.2521 7.06019 29.689 8.35858 38.1325C8.51391 38.1445 8.62809 38.1604 8.74226 38.1604C13.511 38.1617 18.2797 38.1577 23.0485 38.1684C23.4096 38.1684 23.5516 38.0582 23.5636 37.6944C23.5742 37.3837 23.6565 37.0744 23.7043 36.7638C24.1836 33.6452 24.6615 30.5254 25.1408 27.4055C25.62 24.287 26.102 21.1671 26.5812 18.0486C26.8494 16.3028 27.1176 14.5557 27.3897 12.778V12.7807ZM27.1534 6.34181C26.6994 4.97571 26.2772 3.67599 25.8218 2.38821C25.778 2.26607 25.5337 2.14128 25.3811 2.13995C19.0763 2.128 12.7715 2.13066 6.46808 2.12269C6.19061 2.12269 6.06184 2.205 5.97687 2.4692C5.59319 3.66271 5.18827 4.85091 4.79531 6.04177C4.76743 6.12806 4.77539 6.22498 4.7661 6.34181H27.1534ZM2.18657 10.5543H29.6705V8.52438H2.18657V10.5543Z" fill="#D3AD7F"/>
</g>
<defs>
<clipPath id="clip0_1001_5422">
<rect width="31.8372" height="40.29" fill="white"/>
</clipPath>
</defs>
</svg>
