<svg width="41" height="41" viewBox="0 0 41 41" fill="none" xmlns="http://www.w3.org/2000/svg">
<g clip-path="url(#clip0_1001_5409)">
<path d="M0 20.9236C0.138677 20.2197 0.206966 19.4927 0.432842 18.8183C0.750119 17.8685 1.18611 16.9577 1.56748 16.0289C1.61895 15.9018 1.7051 15.7537 1.67884 15.636C1.27856 13.8511 1.72611 12.1796 2.36592 10.5428C2.61701 9.89983 2.93744 9.28103 3.25682 8.66644C3.51001 8.17791 3.95126 8.03609 4.36939 8.25776C4.79803 8.48574 4.91044 8.94379 4.63309 9.43967C3.94495 10.671 3.45853 11.9726 3.19063 13.3605C2.66324 16.0888 4.72659 18.8288 7.49173 19.124C10.0678 19.3992 12.6375 19.7333 15.2093 20.0411C16.1192 20.1504 17.0279 20.266 17.9377 20.3647C19.4127 20.5244 20.5295 19.4276 20.3604 17.9536C20.0715 15.4312 19.7552 12.9119 19.4495 10.3915C19.3192 9.3136 19.2415 8.22519 19.044 7.1599C18.5197 4.32962 15.8239 2.6056 13.0241 3.25171C11.754 3.54483 10.5489 4.00078 9.41641 4.64584C9.10333 4.82444 8.79761 4.84861 8.4961 4.63324C8.2366 4.44833 8.10318 4.17518 8.19458 3.88102C8.26182 3.66459 8.41415 3.41245 8.60116 3.30319C10.26 2.34401 12.025 1.66848 13.9539 1.54136C14.4823 1.50669 15.0202 1.62541 15.5539 1.66323C15.6758 1.67163 15.8218 1.67688 15.9206 1.62015C17.4303 0.758672 19.044 0.227075 20.7743 0.0547786C20.8237 0.0495256 20.871 0.0169574 20.9182 -0.00195312H23.0415C23.592 0.102055 24.1435 0.197658 24.6919 0.311122C25.9905 0.579021 27.0747 1.21883 27.9729 2.19272C28.0853 2.31459 28.265 2.4123 28.4278 2.44276C33.5452 3.41035 37.3358 6.23118 39.9496 10.6899C40.4329 11.5146 40.394 12.354 39.832 13.1251C39.2468 13.9267 38.4305 14.1873 37.4702 13.9698C34.9362 13.3962 32.4043 13.4655 29.8766 13.9971C29.7421 14.0255 29.5793 14.1568 29.5236 14.2818C28.8586 15.7884 27.7565 16.8179 26.2184 17.3958C24.8853 17.8969 23.5594 18.4159 22.2252 18.9149C22.0003 18.999 21.8701 19.1093 21.7934 19.3509C21.4047 20.5864 20.5841 21.4101 19.3487 21.7988C19.1091 21.8744 18.9957 22.0015 18.9116 22.2285C18.4136 23.5627 17.8925 24.8885 17.3914 26.2228C16.8136 27.7619 15.7861 28.865 14.2796 29.53C14.1546 29.5857 14.0211 29.7475 13.9928 29.882C13.4612 32.4107 13.3918 34.9416 13.9644 37.4767C14.1808 38.4338 13.9245 39.2532 13.1229 39.8394C12.3213 40.4257 11.4661 40.4236 10.6193 39.9214C6.37181 37.4052 3.59091 33.8028 2.55713 28.9333C2.44682 28.4122 2.25456 28.0119 1.87004 27.6369C0.703893 26.5022 0.276304 25.0293 0.0808952 23.4661C0.066187 23.3253 0.0283658 23.1866 0 23.0469V20.9226V20.9236ZM17.7108 2.4228C17.7423 2.54152 17.7423 2.55728 17.7486 2.56253C17.799 2.6035 17.8484 2.64553 17.902 2.68335C19.2793 3.64779 20.1818 4.94736 20.5505 6.58417C20.7165 7.32064 20.7754 8.08336 20.8678 8.83558C21.1242 10.9389 21.3721 13.0432 21.6232 15.1475C21.7093 15.8672 21.7976 16.5868 21.8932 17.3779C23.427 16.7633 24.9525 16.2695 26.3666 15.553C27.7933 14.8302 28.431 13.5075 28.3396 11.9022C28.2282 9.94185 28.0444 7.98566 27.932 6.02526C27.8237 4.14997 26.5651 2.49004 24.7571 1.9658C23.198 1.51299 21.6106 1.43525 20.021 1.77669C19.2394 1.94478 18.4788 2.20428 17.7108 2.42175V2.4228ZM17.3452 21.886C16.2683 21.761 15.2556 21.6464 14.2439 21.5256C12.1007 21.2703 9.96061 20.993 7.81532 20.7629C6.31823 20.6032 4.94616 20.162 3.81153 19.1481C3.33982 18.7269 2.93849 18.2257 2.49094 17.7446C2.44682 17.8412 2.38903 17.9547 2.34281 18.0713C1.50234 20.1788 1.35316 22.3367 1.89736 24.5377C2.35857 26.4014 3.99538 27.7882 5.87278 27.9226C7.83107 28.0634 9.79042 28.201 11.7487 28.3366C13.6786 28.471 15.1936 27.5077 15.8933 25.7028C16.1811 24.96 16.4658 24.2151 16.7495 23.4703C16.9439 22.9597 17.134 22.448 17.3462 21.8839L17.3452 21.886ZM29.9985 12.3403C32.6197 11.8686 35.2178 11.8161 37.8106 12.4191C38.088 12.4832 38.3601 12.4675 38.5523 12.1996C38.7488 11.9254 38.6952 11.6669 38.5345 11.3969C37.2517 9.23375 35.6023 7.41624 33.4706 6.06203C32.1627 5.22997 30.7528 4.62903 29.2504 4.26028C29.7442 6.93507 29.6948 9.63718 29.9995 12.3414L29.9985 12.3403ZM4.26328 29.2537C4.29585 29.3861 4.32632 29.5237 4.36519 29.6593C5.48616 33.5538 7.89621 36.4313 11.3327 38.502C11.6205 38.6754 11.8968 38.7847 12.2015 38.5556C12.5093 38.3245 12.4568 38.0167 12.3906 37.6994C12.0429 36.0521 11.8769 34.389 12.0219 32.706C12.1007 31.7993 12.2047 30.8958 12.2961 30.0007C9.63493 29.6939 6.93282 29.7549 4.26433 29.2548L4.26328 29.2537Z" fill="#D3AD7F"/>
<path d="M6.16484 6.93373C5.71834 6.94003 5.36009 6.59439 5.35694 6.15734C5.35484 5.73185 5.7299 5.35679 6.15539 5.3589C6.57983 5.361 6.91916 5.69824 6.93072 6.12793C6.94228 6.58493 6.6166 6.92742 6.16484 6.93373Z" fill="#D3AD7F"/>
</g>
<defs>
<clipPath id="clip0_1001_5409">
<rect width="40.2879" height="40.29" fill="white"/>
</clipPath>
</defs>
</svg>
