<svg width="41" height="41" viewBox="0 0 41 41" fill="none" xmlns="http://www.w3.org/2000/svg">
<g clip-path="url(#clip0_1001_5394)">
<path d="M16.4499 11.3674C17.1333 10.194 17.7393 9.00573 18.4796 7.90731C20.5968 4.76785 23.3269 2.32996 26.8837 0.917708C29.234 -0.0146944 31.6572 -0.334213 34.1178 0.421943C37.4426 1.44304 39.4222 3.79223 40.3387 7.06133C41.2666 10.3759 40.8675 13.6427 39.6701 16.8152C37.9622 21.3396 35.1207 24.9589 30.8942 27.3979C28.719 28.6533 26.3788 29.3594 23.8363 29.215C23.5032 29.1956 23.4497 29.3344 23.4043 29.6186C22.9744 32.3704 22.0386 34.9129 20.1681 37.029C17.1014 40.4982 12.6327 41.26 8.5677 39.0234C5.55672 37.3667 3.51112 34.8253 2.04884 31.7779C0.517203 28.5862 -0.161632 25.2056 0.0316712 21.675C0.20337 18.5458 1.04026 15.6155 2.97101 13.0821C4.50038 11.0752 6.47548 9.7562 9.00206 9.36277C11.3149 9.00345 13.4423 9.56517 15.4368 10.7261C15.7915 10.9319 16.1304 11.165 16.4488 11.3663L16.4499 11.3674ZM7.15318 11.4709L6.99398 11.4311C6.83479 11.5187 6.67219 11.5994 6.51755 11.6938C4.76987 12.7535 3.57707 14.2954 2.75156 16.1284C1.47348 18.9665 1.15283 21.9468 1.52238 25.018C1.9249 28.3588 3.04265 31.4254 5.07233 34.126C6.54711 36.0897 8.35506 37.643 10.7168 38.4594C11.7708 38.8233 12.8522 38.9756 13.9893 38.8483C14.0279 38.5515 14.0598 38.2854 14.0984 38.0205C14.4054 35.8691 14.3497 33.7258 13.9324 31.5926C13.3764 28.7533 12.1449 26.2233 10.5087 23.8491C8.55178 21.0087 7.43517 17.8385 7.16455 14.3943C7.08836 13.4255 7.15318 12.4454 7.15318 11.4709ZM37.3994 4.21295C37.33 4.26412 37.2823 4.29255 37.2425 4.32893C34.0132 7.30921 31.9551 10.941 31.1659 15.2756C30.2676 20.2071 27.9094 24.2892 24.0706 27.5139C23.9773 27.5924 23.8705 27.6549 23.7693 27.7254L23.8318 27.8368C24.0092 27.8459 24.1877 27.8653 24.3651 27.8641C26.4084 27.8425 28.3085 27.2808 30.0755 26.2825C33.9745 24.0777 36.6182 20.7836 38.2533 16.6605C39.4006 13.7678 39.8179 10.7841 39.0823 7.70946C38.7764 6.43252 38.2454 5.25679 37.3994 4.21523V4.21295ZM18.309 37.0369C18.7946 36.4741 19.2824 35.9794 19.6894 35.4234C21.3518 33.1549 22.0659 30.551 22.2069 27.7902C22.4082 23.8559 21.5122 20.1684 19.4779 16.7845C18.1385 14.5581 16.3999 12.7217 14.0416 11.546C13.1285 11.0911 12.1677 10.7784 11.1113 10.6909C11.0329 12.6444 11.1784 14.541 11.6253 16.4138C12.237 18.9711 13.4264 21.2441 14.8955 23.4091C17.0798 26.627 18.2033 30.2088 18.3056 34.101C18.3306 35.0448 18.309 35.9897 18.309 37.0358V37.0369ZM23.2849 22.5983C23.3485 22.5301 23.4554 22.4414 23.5305 22.3311C24.1809 21.3703 24.8802 20.4367 25.4601 19.4338C26.6131 17.4394 27.1964 15.246 27.641 12.9935C28.4631 8.82834 30.4644 5.28408 33.514 2.33337C33.6721 2.17986 33.8506 2.0491 34.02 1.90696L33.9563 1.77051C33.4458 1.66931 32.9398 1.53855 32.4247 1.4726C30.4234 1.21448 28.5279 1.64089 26.7313 2.48801C22.4628 4.4995 19.6121 7.85501 17.7268 12.1088C17.6268 12.3339 17.7246 12.4363 17.8656 12.5705C19.7451 14.3591 21.1278 16.4865 22.0602 18.8971C22.5264 20.1024 22.8778 21.3521 23.286 22.5983H23.2849ZM9.71842 10.6568C9.47963 10.6909 9.28747 10.7148 9.0953 10.7466C8.94179 10.7716 8.77351 10.775 8.64274 10.8444C8.54837 10.8944 8.44944 11.0377 8.44603 11.1423C8.38577 13.0321 8.48469 14.9083 8.90882 16.7617C9.50465 19.369 10.669 21.7 12.1745 23.898C14.4873 27.274 15.6346 31.0388 15.6562 35.1312C15.6619 36.2728 15.5448 37.4156 15.4834 38.564C15.6335 38.5128 15.8097 38.4605 15.9803 38.3946C16.152 38.3286 16.3282 38.265 16.4829 38.1683C16.575 38.1103 16.675 37.9966 16.691 37.8954C17.0025 35.9078 17.056 33.9156 16.7512 31.9223C16.2953 28.933 15.1968 26.1994 13.4617 23.7195C10.8771 20.0251 9.6411 15.9169 9.71842 11.4106C9.72297 11.173 9.71842 10.9353 9.71842 10.6568ZM36.3794 3.14865C36.1156 2.95876 35.8279 2.73475 35.5187 2.546C35.4504 2.50393 35.2731 2.55169 35.2014 2.61764C33.2081 4.44605 31.5469 6.52349 30.3905 8.98867C29.5479 10.7864 29.1033 12.6921 28.7019 14.6229C27.9412 18.2854 26.2458 21.4783 23.709 24.2266C23.6112 24.3324 23.5089 24.4893 23.5123 24.6201C23.5237 25.0817 23.5805 25.5411 23.6249 26.0607C23.7659 25.9447 23.875 25.8651 23.9739 25.773C27.1054 22.8542 29.043 19.2815 29.806 15.0743C30.4166 11.7086 31.7299 8.65551 33.8631 5.97883C34.6386 5.00549 35.5164 4.11516 36.3806 3.14865H36.3794Z" fill="#D3AD7F"/>
<path d="M8.75323 34.2466C9.01704 34.3899 9.20806 34.4729 9.37749 34.5877C10.1018 35.0812 10.8136 35.5929 11.5413 36.0807C11.9916 36.3831 12.136 36.7345 11.9132 37.1041C11.6937 37.4679 11.281 37.5566 10.8432 37.2655C10.0199 36.7174 9.21261 36.1432 8.41097 35.5633C8.14604 35.3723 8.02551 35.0698 8.19607 34.7765C8.3166 34.5695 8.55197 34.4308 8.75323 34.2466Z" fill="#D3AD7F"/>
<path d="M7.93339 33.4869C7.81968 33.6302 7.70484 33.9088 7.51153 33.9838C7.30231 34.0645 6.9339 34.0452 6.78494 33.9076C6.42563 33.5767 6.12771 33.1685 5.85481 32.758C5.67629 32.4885 5.73201 32.177 5.97876 31.945C6.22323 31.7153 6.57003 31.6448 6.78949 31.8688C7.1886 32.2782 7.50926 32.7649 7.85834 33.2231C7.89018 33.2652 7.89018 33.33 7.93339 33.4869Z" fill="#D3AD7F"/>
<path d="M22.4824 9.62966C22.4448 9.70243 22.3732 9.86731 22.2788 10.0185C21.8001 10.7838 21.3089 11.5422 20.8347 12.3109C20.5687 12.743 20.2241 12.8908 19.8523 12.6952C19.4862 12.503 19.3634 12.0914 19.6158 11.6718C20.1332 10.8145 20.6778 9.97192 21.2304 9.13617C21.4158 8.85645 21.6966 8.72568 22.0435 8.86441C22.3391 8.98153 22.4869 9.19985 22.4824 9.62966Z" fill="#D3AD7F"/>
<path d="M24.9566 6.90426C24.943 7.50122 23.6854 8.62351 23.2669 8.5064C23.0532 8.44727 22.8053 8.25055 22.7234 8.05384C22.6495 7.87873 22.7098 7.55011 22.8405 7.40684C23.1601 7.05435 23.5285 6.73256 23.9287 6.47672C24.0993 6.36756 24.4302 6.38234 24.6258 6.4733C24.8031 6.55631 24.8975 6.81898 24.9578 6.90426H24.9566Z" fill="#D3AD7F"/>
</g>
<defs>
<clipPath id="clip0_1001_5394">
<rect width="40.8494" height="40.29" fill="white"/>
</clipPath>
</defs>
</svg>
