<svg width="46" height="41" viewBox="0 0 46 41" fill="none" xmlns="http://www.w3.org/2000/svg">
<g clip-path="url(#clip0_1001_5378)">
<path d="M45.9495 24.7342C45.524 26.5492 44.4391 27.917 42.9238 28.9072C41.8053 29.6385 40.6125 30.2774 39.3958 30.8361C37.5472 31.6836 35.5848 32.2099 33.5972 32.633C33.4834 32.657 33.3503 32.6798 33.27 32.7529C32.6466 33.3235 32.0328 33.9062 31.3627 34.5367C31.5737 34.5367 31.7319 34.5367 31.889 34.5367C35.5525 34.5367 39.216 34.5415 42.8783 34.5319C43.3733 34.5307 43.7642 34.6542 43.9679 35.1373C44.1765 35.6324 43.9488 35.998 43.6071 36.3349C42.9466 36.987 42.2992 37.6512 41.6387 38.3033C40.2973 39.6256 38.6897 40.2909 36.8016 40.2909C26.9488 40.2861 17.0948 40.2861 7.24194 40.2909C5.38621 40.2909 3.79782 39.6483 2.46837 38.3668C1.75749 37.6823 1.07178 36.9703 0.371693 36.2726C0.0480203 35.9501 -0.105424 35.5821 0.0791887 35.1373C0.269796 34.6758 0.639022 34.5319 1.12213 34.5331C4.78562 34.5415 8.44911 34.5379 12.1114 34.5379H12.7204C12.5154 34.3593 12.3907 34.249 12.2636 34.1411C8.71764 31.113 6.54784 27.3044 5.94485 22.6699C5.74345 21.1199 5.76383 19.5339 5.76863 17.9647C5.77222 16.7084 6.92665 15.5396 8.17579 15.3897C8.39756 15.3633 8.62294 15.3501 8.84711 15.3489C17.6234 15.3466 26.4009 15.3454 35.1772 15.3489C36.8879 15.3489 38.0387 16.2972 38.2773 17.906C38.3289 18.2584 38.3025 18.6228 38.3085 18.9825C38.3121 19.2054 38.3085 19.4284 38.3085 19.6406C39.1093 19.4979 39.8777 19.2846 40.6545 19.2426C41.4337 19.2007 42.2513 19.2174 43.0005 19.408C44.668 19.8324 45.5372 21.042 45.8524 22.6927C45.874 22.8066 45.916 22.9157 45.9495 23.0272V24.7354V24.7342ZM22.0386 17.2706C17.6426 17.2706 13.2467 17.2706 8.85071 17.2706C8.07269 17.2706 7.66271 17.5931 7.68069 18.3064C7.71785 19.7857 7.6759 21.2853 7.90846 22.7371C8.73682 27.8871 11.4976 31.7411 15.9871 34.3593C16.1693 34.466 16.4055 34.5271 16.6164 34.5283C20.22 34.5379 23.8235 34.5379 27.4271 34.5283C27.6249 34.5283 27.8443 34.4732 28.0157 34.3761C31.7667 32.2422 34.3045 29.117 35.6352 25.0028C36.3185 22.8905 36.4084 20.7159 36.3628 18.5233C36.3437 17.5751 36.05 17.2682 35.0909 17.2682C30.7393 17.2682 26.3889 17.2682 22.0374 17.2682L22.0386 17.2706ZM3.36027 36.4847C4.47753 37.8166 5.84655 38.3716 7.50207 38.3692C17.1763 38.3561 26.8517 38.3632 36.5259 38.3608C36.8544 38.3608 37.1852 38.3537 37.5101 38.3105C38.7892 38.1415 39.813 37.5217 40.6857 36.4835H3.36027V36.4847ZM35.2612 30.287C36.2825 29.9358 37.19 29.6589 38.0711 29.3148C39.7314 28.6675 41.3342 27.9098 42.6625 26.6775C43.6527 25.7592 44.1609 24.6683 43.9919 23.2777C43.8481 22.0909 43.2978 21.3752 42.1434 21.187C40.8403 20.9737 39.596 21.3069 38.384 21.7565C38.2929 21.79 38.2258 21.983 38.2102 22.1089C37.8949 24.7558 37.0893 27.2349 35.7203 29.5258C35.5932 29.7392 35.465 29.9514 35.2612 30.2894V30.287Z" fill="#D3AD7F"/>
<path d="M21.053 9.77391C21.0722 8.29341 21.4414 7.16775 22.1858 6.15957C23.2048 4.77857 23.2264 3.06191 22.2673 1.64135C21.8837 1.07312 21.9437 0.521679 22.4256 0.182423C22.9027 -0.153237 23.4494 -0.0177744 23.8521 0.533667C25.2248 2.41576 25.2967 5.22931 23.8737 7.08503C22.8044 8.47922 22.7037 10.5855 23.7467 11.9185C24.0967 12.3669 23.9624 12.9471 23.5225 13.2624C23.1161 13.5537 22.5443 13.4758 22.205 13.0466C21.3934 12.0228 21.059 10.8336 21.053 9.77391Z" fill="#D3AD7F"/>
<path d="M30.6435 3.81616C30.6291 5.11445 30.2767 6.2473 29.531 7.26027C28.4905 8.67364 28.4653 10.3747 29.4399 11.824C29.8103 12.3755 29.7552 12.903 29.2912 13.2506C28.8345 13.5923 28.2591 13.4616 27.8563 12.9245C26.4393 11.0364 26.4549 8.19892 27.9114 6.20894C28.7566 5.05451 28.9268 3.80777 28.4569 2.47232C28.349 2.16663 28.168 1.88372 27.9942 1.608C27.6513 1.06375 27.7148 0.505113 28.18 0.183838C28.6523 -0.14343 29.1906 -0.0247505 29.5802 0.505113C30.3162 1.5037 30.6387 2.63655 30.6447 3.81736L30.6435 3.81616Z" fill="#D3AD7F"/>
<path d="M19.1566 3.79535C19.1434 5.11761 18.7886 6.24926 18.0441 7.26223C17.0036 8.678 16.9784 10.3755 17.9542 11.8248C18.3246 12.3739 18.2683 12.9073 17.8044 13.2514C17.3584 13.5822 16.7878 13.4636 16.397 12.9589C14.974 11.1211 14.9465 8.23205 16.3754 6.28283C17.2421 5.10082 17.4531 3.8433 16.97 2.47189C16.8621 2.16619 16.6811 1.88328 16.5073 1.60756C16.1656 1.06571 16.2316 0.50228 16.6943 0.183402C17.169 -0.143866 17.7037 -0.0239875 18.0933 0.507075C18.8281 1.50686 19.1518 2.63852 19.1566 3.79535Z" fill="#D3AD7F"/>
</g>
<defs>
<clipPath id="clip0_1001_5378">
<rect width="45.9495" height="40.29" fill="white"/>
</clipPath>
</defs>
</svg>
