<svg width="266" height="44" viewBox="0 0 266 44" fill="none" xmlns="http://www.w3.org/2000/svg">
<path d="M62.4613 0.563059C62.5264 0.195189 62.6557 0.000198364 62.8295 0.000198364C63.0029 0.000198364 63.1322 0.108835 63.4129 0.670977L69.3182 12.8765L75.2028 0.518984C75.3757 0.173622 75.4835 0.000198364 75.6779 0.000198364C75.8733 0.000198364 76.003 0.216257 76.0682 0.670977L78.0365 14.0461C78.2305 15.4086 78.4465 16.0364 79.0963 16.2314C79.7232 16.4259 80.1561 16.448 80.4372 16.448C80.6321 16.448 80.7834 16.469 80.7834 16.5992C80.7834 16.7723 80.5239 16.8374 80.2212 16.8374C79.681 16.8374 76.6955 16.7723 75.8297 16.7076C75.3321 16.6646 75.2028 16.5992 75.2028 16.469C75.2028 16.3616 75.289 16.296 75.4404 16.2314C75.5706 16.1882 75.6357 15.9069 75.549 15.3004L74.2508 5.77878H74.1641L69.4484 15.6047C68.9504 16.6205 68.843 16.8163 68.6477 16.8163C68.4541 16.8163 68.2372 16.3827 67.8906 15.7335C67.3714 14.7379 65.6632 11.4272 65.4036 10.8211C65.2087 10.3669 63.9109 7.63889 63.1537 6.01658H63.0675L61.943 14.6305C61.899 15.0196 61.8779 15.3004 61.8779 15.6468C61.8779 16.0589 62.1586 16.2525 62.5264 16.3397C62.9166 16.4259 63.2193 16.448 63.4353 16.448C63.6087 16.448 63.7595 16.491 63.7595 16.5992C63.7595 16.7939 63.5642 16.8374 63.2404 16.8374C62.3319 16.8374 61.3588 16.7723 60.9699 16.7723C60.5581 16.7723 59.5194 16.8374 58.8274 16.8374C58.6109 16.8374 58.4385 16.7939 58.4385 16.5992C58.4385 16.491 58.5678 16.448 58.7847 16.448C58.9581 16.448 59.1089 16.448 59.4332 16.3827C60.0381 16.2525 60.2119 15.4086 60.3201 14.6728L62.4613 0.563059Z" fill="#979797"/>
<path d="M93.2212 11.1891C93.3074 11.1891 93.3294 11.1456 93.3074 11.0803L91.5116 6.40651C91.4905 6.34123 91.4689 6.23296 91.4254 6.23296C91.3607 6.23296 91.3396 6.34123 91.3171 6.40651L89.4786 11.0592C89.4346 11.1456 89.4786 11.1891 89.5437 11.1891H93.2212ZM89.154 12.2058C89.0457 12.2058 89.0246 12.2274 88.9806 12.3356L87.9648 14.8035C87.7699 15.2577 87.6837 15.7119 87.6837 15.9281C87.6837 16.2525 87.8557 16.448 88.4404 16.448H88.722C88.9595 16.448 89.0026 16.5341 89.0026 16.6424C89.0026 16.7939 88.8944 16.8374 88.6999 16.8374C88.0726 16.8374 87.1852 16.7723 86.5799 16.7723C86.3854 16.7723 85.3687 16.8374 84.374 16.8374C84.1356 16.8374 84.0273 16.7939 84.0273 16.6424C84.0273 16.5341 84.0925 16.448 84.2442 16.448C84.4162 16.448 84.6331 16.4259 84.8065 16.4259C85.6714 16.296 85.9965 15.7335 86.3854 14.8035L91.3607 3.22416C91.5771 2.70488 91.7285 2.48918 91.9229 2.48918C92.2036 2.48918 92.2907 2.66256 92.4852 3.07325C92.9392 4.09042 96.12 11.6217 97.3311 14.4141C98.0667 16.08 98.6069 16.3172 98.9532 16.3827C99.2338 16.4259 99.4507 16.448 99.6667 16.448C99.8401 16.448 99.9263 16.5131 99.9263 16.6424C99.9263 16.7939 99.8185 16.8374 99.1045 16.8374C98.4336 16.8374 97.0491 16.8374 95.4491 16.7939C95.1028 16.7723 94.8864 16.7723 94.8864 16.6424C94.8864 16.5341 94.9299 16.469 95.1248 16.448C95.2542 16.4259 95.3844 16.2525 95.2982 16.0364L93.8266 12.3356C93.7834 12.2274 93.7179 12.2058 93.6317 12.2058H89.154Z" fill="#979797"/>
<path d="M108.748 9.67419C108.748 9.86864 108.79 9.93374 108.92 9.99884C109.331 10.1284 109.893 10.1719 110.37 10.1719C111.127 10.1719 111.386 10.1068 111.71 9.86864C112.295 9.45709 112.944 8.65697 112.944 7.14185C112.944 4.54465 111.17 3.87423 110.045 3.87423C109.57 3.87423 109.116 3.89548 108.92 3.93951C108.79 3.9825 108.748 4.04693 108.748 4.1982V9.67419ZM106.324 8.24488C106.324 5.4539 106.324 4.93426 106.303 4.34966C106.26 3.72241 106.086 3.52742 105.481 3.35459C105.329 3.31141 105.006 3.28926 104.724 3.28926C104.529 3.28926 104.4 3.22416 104.4 3.09481C104.4 2.96497 104.552 2.92143 104.832 2.92143C105.828 2.92143 107.039 2.96497 107.428 2.96497C108.077 2.96497 109.808 2.92143 110.391 2.92143C111.603 2.92143 112.987 3.03092 114.004 3.70134C114.544 4.06886 115.345 4.99972 115.345 6.23296C115.345 7.59662 114.566 8.80824 112.706 10.3017C114.393 12.3792 115.734 14.0461 116.881 15.1926C117.94 16.2525 118.611 16.3397 118.914 16.4039C119.108 16.448 119.218 16.448 119.369 16.448C119.521 16.448 119.606 16.5552 119.606 16.6424C119.606 16.7939 119.476 16.8374 119.239 16.8374H117.422C116.361 16.8374 115.842 16.73 115.345 16.469C114.523 16.0589 113.809 15.1926 112.749 13.7644C111.991 12.7688 111.192 11.5345 110.953 11.2537C110.846 11.1456 110.737 11.1243 110.607 11.1243L108.899 11.0803C108.812 11.0803 108.748 11.1243 108.748 11.2312V11.4923C108.748 13.2014 108.769 14.6305 108.855 15.4086C108.92 15.9492 109.007 16.296 109.591 16.3827C109.872 16.4259 110.283 16.448 110.521 16.448C110.673 16.448 110.76 16.5552 110.76 16.6424C110.76 16.7723 110.607 16.8374 110.37 16.8374C109.267 16.8374 107.687 16.7723 107.406 16.7723C107.039 16.7723 105.828 16.8374 105.069 16.8374C104.832 16.8374 104.703 16.7723 104.703 16.6424C104.703 16.5552 104.767 16.448 105.006 16.448C105.286 16.448 105.502 16.4259 105.676 16.3827C106.065 16.296 106.173 15.9492 106.238 15.4086C106.324 14.6305 106.324 13.1794 106.324 11.4923V8.24488Z" fill="#979797"/>
<path d="M125.491 8.24488C125.491 5.4539 125.491 4.93426 125.47 4.34966C125.427 3.72241 125.232 3.50635 124.821 3.37561C124.604 3.31141 124.366 3.28926 124.128 3.28926C123.934 3.28926 123.825 3.24662 123.825 3.07325C123.825 2.96497 123.977 2.92143 124.279 2.92143C124.994 2.92143 126.292 2.96497 126.832 2.96497C127.309 2.96497 128.541 2.92143 129.277 2.92143C129.514 2.92143 129.666 2.96497 129.666 3.07325C129.666 3.24662 129.559 3.28926 129.363 3.28926C129.168 3.28926 129.017 3.31141 128.8 3.35459C128.283 3.44125 128.131 3.70134 128.087 4.34966C128.044 4.93426 128.044 5.4539 128.044 8.24488V11.4923C128.044 13.2665 128.044 14.7379 128.131 15.5175C128.195 16.0149 128.325 16.296 128.888 16.3827C129.147 16.4259 129.58 16.448 129.861 16.448C130.078 16.448 130.164 16.5552 130.164 16.6424C130.164 16.7723 130.013 16.8374 129.797 16.8374C128.541 16.8374 127.244 16.7723 126.725 16.7723C126.292 16.7723 124.994 16.8374 124.237 16.8374C123.999 16.8374 123.87 16.7723 123.87 16.6424C123.87 16.5552 123.934 16.448 124.172 16.448C124.453 16.448 124.669 16.4259 124.843 16.3827C125.232 16.296 125.339 16.0364 125.404 15.495C125.491 14.7379 125.491 13.2665 125.491 11.4923V8.24488Z" fill="#979797"/>
<path d="M150.022 15.6043C150.022 16.1006 150.022 16.1221 149.784 16.252C148.507 16.8807 146.625 17.0742 145.133 17.0742C140.461 17.0742 136.329 14.954 136.329 9.86819C136.329 6.92593 137.908 4.86853 139.66 3.8527C141.478 2.79109 143.186 2.66211 144.787 2.66211C146.106 2.66211 147.772 2.87871 148.161 2.96452C148.55 3.03047 149.221 3.13754 149.675 3.15951C149.892 3.18161 149.936 3.24617 149.936 3.37516C149.936 3.59208 149.805 4.08997 149.805 6.40606C149.805 6.68686 149.697 6.81621 149.546 6.81621C149.416 6.81621 149.372 6.72986 149.351 6.57895C149.307 6.16741 149.2 5.58334 148.702 5.06437C148.14 4.47941 146.713 3.65686 144.57 3.65686C143.532 3.65686 142.213 3.67793 140.893 4.73918C139.834 5.60454 139.141 6.96802 139.141 9.21812C139.141 13.179 141.693 16.0584 145.76 16.0584C146.258 16.0584 146.647 16.0584 147.102 15.8626C147.383 15.7331 147.47 15.5386 147.47 15.2137V13.5258C147.47 12.6174 147.47 11.9245 147.448 11.3615C147.425 10.7339 147.231 10.5395 146.625 10.3664C146.474 10.3224 146.149 10.3013 145.891 10.3013C145.717 10.3013 145.587 10.215 145.587 10.1063C145.587 9.95454 145.739 9.93329 145.998 9.93329C146.994 9.93329 148.356 9.97646 148.918 9.97646C149.524 9.97646 150.519 9.93329 151.147 9.93329C151.405 9.93329 151.536 9.95454 151.536 10.1063C151.536 10.215 151.428 10.3013 151.298 10.3013C151.147 10.3013 150.995 10.3224 150.779 10.3664C150.26 10.4531 150.065 10.712 150.043 11.3615C150.022 11.9245 150.022 12.6595 150.022 13.569V15.6043Z" fill="#979797"/>
<path d="M160.852 14.3269C160.896 15.756 161.134 16.1883 161.501 16.3173C161.825 16.4259 162.193 16.448 162.496 16.448C162.712 16.448 162.821 16.5342 162.821 16.6425C162.821 16.7939 162.647 16.8375 162.388 16.8375C161.155 16.8375 160.268 16.7724 159.922 16.7724C159.749 16.7724 158.841 16.8375 157.867 16.8375C157.608 16.8375 157.434 16.8164 157.434 16.6425C157.434 16.5342 157.564 16.448 157.738 16.448C157.997 16.448 158.343 16.4259 158.603 16.3617C159.101 16.2315 159.165 15.7336 159.186 14.1323L159.359 3.22422C159.359 2.85725 159.489 2.59752 159.684 2.59752C159.922 2.59752 160.182 2.87922 160.507 3.20315C160.744 3.44132 163.599 6.36255 166.368 9.06772C167.666 10.3453 170.197 12.9417 170.478 13.2015H170.565L170.37 5.02099C170.348 3.89554 170.176 3.57121 169.722 3.39765C169.44 3.28933 168.986 3.28933 168.726 3.28933C168.488 3.28933 168.423 3.20315 168.423 3.09488C168.423 2.94343 168.618 2.9215 168.899 2.9215C169.894 2.9215 170.911 2.96503 171.322 2.96503C171.538 2.96503 172.252 2.9215 173.182 2.9215C173.442 2.9215 173.615 2.94343 173.615 3.09488C173.615 3.20315 173.505 3.28933 173.29 3.28933C173.096 3.28933 172.944 3.28933 172.707 3.35465C172.187 3.50642 172.036 3.83076 172.014 4.86905L171.798 16.4691C171.798 16.8812 171.646 17.0537 171.495 17.0537C171.17 17.0537 170.911 16.8591 170.716 16.6646C169.526 15.5602 167.147 13.2887 165.157 11.362C163.08 9.37135 161.068 7.14192 160.701 6.81673H160.636L160.852 14.3269Z" fill="#979797"/>
<path d="M184.234 12.0543C184.234 11.0592 184.061 10.6696 183.802 10.1284C183.672 9.84756 181.076 5.80088 180.405 4.82684C179.93 4.15606 179.54 3.72241 179.174 3.52742C178.935 3.39758 178.61 3.28926 178.372 3.28926C178.221 3.28926 178.091 3.22416 178.091 3.09481C178.091 2.96497 178.221 2.92143 178.459 2.92143C178.783 2.92143 180.211 2.96497 180.838 2.96497C181.25 2.96497 182.136 2.92143 183.002 2.92143C183.174 2.92143 183.283 2.96497 183.283 3.09481C183.283 3.24662 183.153 3.24662 182.85 3.33334C182.699 3.37561 182.59 3.46286 182.59 3.61468C182.59 3.76613 182.677 3.9825 182.829 4.24223C183.174 4.80527 185.662 9.11151 185.987 9.63101C186.225 9.19732 188.539 5.25945 188.82 4.69646C189.015 4.28541 189.101 3.96058 189.101 3.72241C189.101 3.54989 189.015 3.37561 188.691 3.31141C188.517 3.26823 188.344 3.24662 188.344 3.09481C188.344 2.96497 188.453 2.92143 188.668 2.92143C189.297 2.92143 189.967 2.96497 190.529 2.96497C190.941 2.96497 192.195 2.92143 192.563 2.92143C192.779 2.92143 192.908 2.96497 192.908 3.07325C192.908 3.20309 192.757 3.28926 192.54 3.28926C192.347 3.28926 191.999 3.37561 191.718 3.50635C191.308 3.70134 191.135 3.87422 190.724 4.37122C190.097 5.10764 187.371 9.47956 187.026 10.2577C186.744 10.929 186.787 11.4923 186.787 12.0984V13.5694C186.787 13.8727 186.787 14.6305 186.83 15.4086C186.873 15.9492 187.047 16.296 187.609 16.3827C187.89 16.4259 188.302 16.448 188.561 16.448C188.777 16.448 188.885 16.5552 188.885 16.6424C188.885 16.7723 188.734 16.8374 188.474 16.8374C187.284 16.8374 186.008 16.7723 185.489 16.7723C185.014 16.7723 183.737 16.8374 183.023 16.8374C182.764 16.8374 182.613 16.7939 182.613 16.6424C182.613 16.5552 182.699 16.448 182.915 16.448C183.174 16.448 183.411 16.4259 183.586 16.3827C183.975 16.296 184.126 15.9492 184.169 15.4086C184.234 14.6305 184.234 13.8727 184.234 13.5694V12.0543Z" fill="#979797"/>
<path d="M42.6438 33.4092C42.6438 28.5615 39.8537 25.5536 36.3065 25.5536C33.8182 25.5536 30.9845 26.9392 30.9845 32.3274C30.9845 36.8292 33.4724 40.3992 37.6259 40.3992C39.1393 40.3992 42.6438 39.6642 42.6438 33.4092ZM28 32.9976C28 29.2979 30.4439 24.5148 36.9339 24.5148C42.32 24.5148 45.6724 27.6531 45.6724 32.6082C45.6724 37.5642 42.2109 41.4824 36.717 41.4824C30.5085 41.4824 28 36.8292 28 32.9976Z" fill="#979797"/>
<path d="M53.4368 32.5873C53.4368 29.7954 53.4368 29.2768 53.4144 28.6918C53.3713 28.0637 53.1988 27.8693 52.5926 27.6959C52.4413 27.6532 52.1166 27.632 51.8359 27.632C51.641 27.632 51.5112 27.5669 51.5112 27.4361C51.5112 27.3063 51.6621 27.2641 51.9441 27.2641C52.9384 27.2641 54.1504 27.3063 54.6916 27.3063C55.4698 27.3063 56.9836 27.2641 57.8494 27.2641C60.2291 27.2641 61.0935 28.0423 61.3962 28.3019C61.8085 28.6918 62.3483 29.5146 62.3483 30.5093C62.3483 33.1069 60.2717 34.9679 57.5679 34.9679C57.4816 34.9679 57.0928 34.9679 57.0052 34.9454C56.897 34.9454 56.7681 34.8812 56.7681 34.7519C56.7681 34.6004 56.9836 34.5132 57.3954 34.5132C58.4548 34.5132 59.9475 33.4093 59.9475 31.5272C59.9475 30.9207 59.8824 29.7096 58.8226 28.7998C58.1301 28.1936 57.3514 28.1074 56.9194 28.1074C56.6387 28.1074 56.2705 28.1285 56.0972 28.1936C55.9889 28.2376 55.9463 28.3456 55.9463 28.5405V35.8333C55.9463 37.5222 55.9463 38.9714 56.032 39.7726C56.0972 40.2919 56.2054 40.6378 56.7681 40.7245C57.0487 40.7672 57.4605 40.7896 57.7412 40.7896C57.9568 40.7896 58.0439 40.8979 58.0439 40.9843C58.0439 41.1141 57.8926 41.1787 57.6977 41.1787C56.4218 41.1787 55.0809 41.1141 54.5829 41.1141C54.1504 41.1141 52.9384 41.1787 52.1812 41.1787C51.9441 41.1787 51.8135 41.1141 51.8135 40.9843C51.8135 40.8979 51.879 40.7896 52.1166 40.7896C52.3981 40.7896 52.615 40.7672 52.787 40.7245C53.1768 40.6378 53.2851 40.2919 53.3502 39.7505C53.4369 38.9714 53.4368 37.5222 53.4368 35.8333V32.5873Z" fill="#979797"/>
<path d="M70.6504 32.5874C70.6504 29.7955 70.6504 29.2769 70.6293 28.692C70.5857 28.0639 70.4132 27.8694 69.8074 27.696C69.6561 27.6533 69.331 27.6321 69.0503 27.6321C68.8554 27.6321 68.7261 27.567 68.7261 27.4363C68.7261 27.3064 68.877 27.2643 69.1576 27.2643C70.1537 27.2643 71.3653 27.3064 71.906 27.3064C72.5113 27.3064 76.729 27.328 77.0968 27.3064C77.4435 27.2853 77.7457 27.2202 77.8975 27.199C78.0062 27.1765 78.1139 27.1123 78.2006 27.1123C78.3084 27.1123 78.3304 27.199 78.3304 27.2853C78.3304 27.4152 78.2217 27.6321 78.1795 28.4754C78.1571 28.6704 78.1139 29.4702 78.0699 29.6872C78.0488 29.7734 78.0062 29.99 77.8544 29.99C77.7246 29.99 77.7021 29.9042 77.7021 29.7523C77.7021 29.6221 77.681 29.2982 77.5737 29.0811C77.4215 28.7576 77.2701 28.4966 76.3185 28.4103C75.9934 28.3671 73.722 28.3245 73.3331 28.3245C73.2469 28.3245 73.2029 28.3892 73.2029 28.4966V33.0419C73.2029 33.1499 73.2249 33.2369 73.3331 33.2369C73.766 33.2369 76.2323 33.2369 76.6643 33.1934C77.1183 33.1499 77.399 33.107 77.5737 32.9117C77.7246 32.7819 77.7893 32.6741 77.8764 32.6741C77.9626 32.6741 78.0277 32.7602 78.0277 32.8686C78.0277 32.9763 77.9837 33.2796 77.8764 34.2106C77.8324 34.5784 77.7893 35.3136 77.7893 35.4444C77.7893 35.5953 77.7668 35.8549 77.5948 35.8549C77.4646 35.8549 77.4215 35.7911 77.4215 35.7039C77.399 35.5095 77.399 35.2713 77.3568 35.0328C77.2477 34.6648 77.0101 34.384 76.2965 34.3189C75.9508 34.2752 73.7871 34.2325 73.312 34.2325C73.2249 34.2325 73.2029 34.3189 73.2029 34.4272V35.8986C73.2029 36.5262 73.1818 38.0834 73.2029 38.6251C73.2469 39.88 73.8307 40.1622 75.7779 40.1622C76.275 40.1622 77.0757 40.1411 77.5737 39.924C78.0488 39.7071 78.2653 39.3184 78.3951 38.5614C78.4377 38.3656 78.4817 38.2792 78.6111 38.2792C78.7624 38.2792 78.7844 38.5169 78.7844 38.7124C78.7844 39.123 78.6335 40.3782 78.524 40.7462C78.3951 41.2217 78.2217 41.2217 77.5086 41.2217C76.081 41.2217 74.9332 41.2004 74.004 41.1564C73.0735 41.1353 72.36 41.1143 71.7977 41.1143C71.5808 41.1143 71.1699 41.1353 70.7155 41.1353C70.2615 41.1564 69.7859 41.1789 69.3956 41.1789C69.1576 41.1789 69.0287 41.1143 69.0287 40.9844C69.0287 40.8981 69.0925 40.7898 69.331 40.7898C69.6125 40.7898 69.8286 40.7673 70.0019 40.7247C70.3921 40.638 70.4995 40.2921 70.5641 39.7506C70.6504 38.9716 70.6504 37.5223 70.6504 35.8335V32.5874Z" fill="#979797"/>
<path d="M89.43 34.0155C89.43 34.2105 89.474 34.275 89.6033 34.3398C90.0142 34.47 90.5764 34.5132 91.0529 34.5132C91.8096 34.5132 92.0692 34.4489 92.3943 34.2105C92.9785 33.7989 93.6265 32.9977 93.6265 31.4837C93.6265 28.8865 91.8536 28.2157 90.7282 28.2157C90.2518 28.2157 89.7977 28.2376 89.6033 28.2799C89.474 28.3243 89.43 28.3891 89.43 28.5405V34.0155ZM87.0076 32.5873C87.0076 29.7954 87.0077 29.2768 86.9856 28.6918C86.943 28.0637 86.7701 27.8693 86.1638 27.6959C86.0125 27.6532 85.6874 27.632 85.4067 27.632C85.2123 27.632 85.082 27.5669 85.082 27.4361C85.082 27.3063 85.2334 27.2641 85.5149 27.2641C86.5101 27.2641 87.7212 27.3063 88.1106 27.3063C88.759 27.3063 90.4902 27.2641 91.074 27.2641C92.2861 27.2641 93.6701 27.371 94.6868 28.0423C95.2279 28.4101 96.0277 29.3412 96.0277 30.5744C96.0277 31.9379 95.249 33.1497 93.3885 34.6427C95.0766 36.7207 96.4166 38.3865 97.564 39.5348C98.6234 40.5952 99.2938 40.681 99.5969 40.7461C99.7918 40.7896 99.8996 40.7896 100.051 40.7896C100.202 40.7896 100.289 40.8979 100.289 40.9843C100.289 41.1352 100.16 41.1787 99.9216 41.1787H98.1042C97.0444 41.1787 96.5253 41.0704 96.0277 40.8112C95.2059 40.3993 94.4923 39.5348 93.4325 38.1057C92.675 37.1096 91.8747 35.8772 91.6371 35.5952C91.528 35.4869 91.4207 35.4653 91.2905 35.4653L89.5808 35.423C89.4951 35.423 89.43 35.4653 89.43 35.5739V35.8333C89.43 37.5432 89.452 38.9714 89.5386 39.7505C89.6033 40.2919 89.6904 40.6378 90.2742 40.7245C90.5549 40.7672 90.9667 40.7896 91.2042 40.7896C91.3556 40.7896 91.4418 40.8979 91.4418 40.9843C91.4418 41.1141 91.2905 41.1787 91.0529 41.1787C89.9491 41.1787 88.3701 41.1141 88.0886 41.1141C87.7212 41.1141 86.5101 41.1787 85.7529 41.1787C85.5149 41.1787 85.3852 41.1141 85.3852 40.9843C85.3852 40.8979 85.4503 40.7896 85.6874 40.7896C85.9689 40.7896 86.1858 40.7672 86.3583 40.7245C86.7485 40.6378 86.8563 40.2919 86.9219 39.7505C87.0077 38.9714 87.0076 37.5222 87.0076 35.8333V32.5873Z" fill="#979797"/>
<path d="M111.055 35.5304C111.141 35.5304 111.163 35.4869 111.141 35.423L109.346 30.7473C109.324 30.6827 109.302 30.5744 109.26 30.5744C109.195 30.5744 109.172 30.6827 109.151 30.7473L107.313 35.4005C107.27 35.4869 107.313 35.5304 107.377 35.5304H111.055ZM106.988 36.5476C106.881 36.5476 106.858 36.5687 106.816 36.6775L105.798 39.1448C105.604 39.599 105.517 40.0534 105.517 40.27C105.517 40.5952 105.691 40.7896 106.274 40.7896H106.555C106.794 40.7896 106.837 40.876 106.837 40.9843C106.837 41.1352 106.729 41.1787 106.533 41.1787C105.907 41.1787 105.02 41.1141 104.414 41.1141C104.219 41.1141 103.202 41.1787 102.207 41.1787C101.97 41.1787 101.861 41.1352 101.861 40.9843C101.861 40.876 101.926 40.7896 102.078 40.7896C102.252 40.7896 102.468 40.7672 102.64 40.7672C103.505 40.6378 103.831 40.0748 104.219 39.1448L109.195 27.5669C109.411 27.047 109.562 26.831 109.757 26.831C110.038 26.831 110.125 27.003 110.32 27.4151C110.774 28.4318 113.953 35.9635 115.164 38.7545C115.9 40.4212 116.441 40.6599 116.787 40.7245C117.069 40.7672 117.285 40.7896 117.501 40.7896C117.675 40.7896 117.76 40.8535 117.76 40.9843C117.76 41.1352 117.652 41.1787 116.939 41.1787C116.268 41.1787 114.883 41.1787 113.283 41.1352C112.936 41.1141 112.721 41.1141 112.721 40.9843C112.721 40.876 112.763 40.8112 112.959 40.7896C113.089 40.7672 113.217 40.5952 113.131 40.3781L111.661 36.6775C111.617 36.5687 111.552 36.5476 111.466 36.5476H106.988Z" fill="#979797"/>
<path d="M141.71 31.6999C141.775 31.6999 141.84 31.6571 141.84 31.5485V31.0942C141.84 27.8045 141.84 27.1988 141.797 26.5065C141.754 25.7706 141.581 25.4233 140.867 25.2724C140.694 25.2288 140.326 25.2073 140.023 25.2073C139.786 25.2073 139.656 25.165 139.656 25.0132C139.656 24.8617 139.807 24.8182 140.11 24.8182C141.278 24.8182 142.641 24.8829 143.225 24.8829C143.743 24.8829 145.107 24.8182 145.95 24.8182C146.253 24.8182 146.404 24.8617 146.404 25.0132C146.404 25.165 146.275 25.2073 146.015 25.2073C145.842 25.2073 145.648 25.2288 145.388 25.2724C144.804 25.3806 144.631 25.7482 144.588 26.5065C144.544 27.1988 144.544 27.8045 144.544 31.0942V34.9032C144.544 36.894 144.544 38.6034 144.653 39.5348C144.717 40.141 144.847 40.6162 145.496 40.7021C145.798 40.7461 146.275 40.7896 146.6 40.7896C146.837 40.7896 146.946 40.8535 146.946 40.9632C146.946 41.1141 146.772 41.1787 146.512 41.1787C145.107 41.1787 143.743 41.1141 143.138 41.1141C142.641 41.1141 141.278 41.1787 140.434 41.1787C140.131 41.1787 139.979 41.1141 139.979 40.9632C139.979 40.8535 140.066 40.7896 140.326 40.7896C140.65 40.7896 140.911 40.7461 141.104 40.7021C141.537 40.6162 141.645 40.141 141.732 39.512C141.84 38.6034 141.84 36.894 141.84 34.9032V32.9977C141.84 32.9115 141.775 32.8684 141.71 32.8684H133.448C133.382 32.8684 133.317 32.8905 133.317 32.9977V34.9032C133.317 36.894 133.317 38.6034 133.426 39.5348C133.49 40.141 133.62 40.6162 134.269 40.7021C134.572 40.7461 135.048 40.7896 135.373 40.7896C135.61 40.7896 135.718 40.8535 135.718 40.9632C135.718 41.1141 135.546 41.1787 135.286 41.1787C133.88 41.1787 132.517 41.1141 131.911 41.1141C131.415 41.1141 130.052 41.1787 129.186 41.1787C128.904 41.1787 128.753 41.1141 128.753 40.9632C128.753 40.8535 128.84 40.7896 129.1 40.7896C129.423 40.7896 129.684 40.7461 129.878 40.7021C130.311 40.6162 130.419 40.141 130.506 39.512C130.613 38.6034 130.613 36.894 130.613 34.9032V31.0942C130.613 27.8045 130.613 27.1988 130.57 26.5065C130.527 25.7706 130.355 25.4233 129.64 25.2724C129.467 25.2288 129.1 25.2073 128.797 25.2073C128.559 25.2073 128.429 25.165 128.429 25.0132C128.429 24.8617 128.58 24.8182 128.883 24.8182C130.052 24.8182 131.415 24.8829 131.998 24.8829C132.517 24.8829 133.88 24.8182 134.723 24.8182C135.026 24.8182 135.177 24.8617 135.177 25.0132C135.177 25.165 135.048 25.2073 134.788 25.2073C134.616 25.2073 134.421 25.2288 134.161 25.2724C133.577 25.3806 133.404 25.7482 133.361 26.5065C133.317 27.1988 133.317 27.8045 133.317 31.0942V31.5485C133.317 31.6571 133.382 31.6999 133.448 31.6999H141.71Z" fill="#979797"/>
<path d="M166.177 34.5559C166.177 30.4882 163.732 27.9771 160.66 27.9771C158.541 27.9771 156.054 29.1022 156.054 33.6475C156.054 37.4345 158.216 40.4213 161.807 40.4213C163.148 40.4213 166.177 39.7937 166.177 34.5559ZM153.241 34.2106C153.241 31.0722 155.447 27.0031 161.223 27.0031C166.025 27.0031 169.01 29.6659 169.01 33.8857C169.01 38.1058 165.939 41.4175 161.028 41.4175C155.491 41.4175 153.241 37.4782 153.241 34.2106Z" fill="#979797"/>
<path d="M176.705 32.5873C176.705 29.7955 176.726 29.2769 176.681 28.6919C176.639 28.0424 176.466 27.8693 175.86 27.696C175.709 27.6533 175.385 27.6321 175.125 27.6321C174.909 27.6321 174.8 27.567 174.8 27.4362C174.8 27.3064 174.931 27.2642 175.212 27.2642C176.227 27.2642 177.504 27.3063 178.067 27.3063C178.542 27.3063 179.818 27.2642 180.512 27.2642C180.792 27.2642 180.922 27.3064 180.922 27.4362C180.922 27.567 180.814 27.6321 180.619 27.6321C180.403 27.6321 180.296 27.6533 180.058 27.696C179.56 27.7835 179.408 28.0424 179.364 28.6919C179.322 29.2769 179.322 29.7955 179.322 32.5873V35.1621C179.322 37.846 179.841 38.8848 180.771 39.6207C181.614 40.292 182.523 40.3571 183.172 40.3571C183.994 40.3571 184.967 40.1186 185.724 39.3822C186.784 38.3866 186.828 36.7858 186.828 34.9033V32.5873C186.828 29.7955 186.807 29.2769 186.784 28.6919C186.742 28.0638 186.59 27.8693 185.984 27.696C185.834 27.6533 185.508 27.6321 185.292 27.6321C185.076 27.6321 184.967 27.567 184.967 27.4362C184.967 27.3064 185.098 27.2642 185.356 27.2642C186.33 27.2642 187.606 27.3063 187.628 27.3063C187.844 27.3063 189.121 27.2642 189.856 27.2642C190.116 27.2642 190.245 27.3064 190.245 27.4362C190.245 27.567 190.137 27.6321 189.921 27.6321C189.704 27.6321 189.596 27.6533 189.359 27.696C188.84 27.7835 188.709 28.0424 188.666 28.6919C188.644 29.2769 188.623 29.7955 188.623 32.5873V34.5559C188.623 36.6125 188.406 38.7771 186.807 40.0961C185.465 41.2216 184.015 41.4175 182.783 41.4175C181.787 41.4175 179.818 41.3734 178.435 40.1621C177.462 39.3183 176.705 37.9543 176.705 35.2923V32.5873Z" fill="#979797"/>
<path d="M197.252 40.9408C196.949 40.8113 196.884 40.7246 196.884 40.3131C196.884 39.3183 196.97 38.1709 196.992 37.8676C196.992 37.5868 197.08 37.3918 197.231 37.3918C197.403 37.3918 197.425 37.5644 197.425 37.6942C197.425 37.9324 197.49 38.3218 197.599 38.6472C198.009 40.0103 199.436 40.4645 200.626 40.4645C202.27 40.4645 203.265 39.4257 203.265 38.1274C203.265 37.3262 203.071 36.5261 201.383 35.5305L200.281 34.8813C198.031 33.5613 197.295 32.3276 197.295 30.7053C197.295 28.4543 199.459 27.0031 202.098 27.0031C203.33 27.0031 204.303 27.1765 204.802 27.3064C204.974 27.35 205.06 27.4152 205.06 27.545C205.06 27.7835 204.996 28.302 204.996 29.7523C204.996 30.1414 204.909 30.3373 204.758 30.3373C204.629 30.3373 204.564 30.2275 204.564 30.012C204.564 29.8385 204.477 29.2769 204.066 28.7999C203.784 28.4543 203.179 27.935 201.947 27.935C200.584 27.935 199.35 28.6479 199.35 29.9041C199.35 30.7263 199.653 31.3755 201.362 32.3276L202.14 32.7602C204.65 34.1458 205.428 35.5521 205.428 37.219C205.428 38.5824 204.909 39.686 203.526 40.66C202.617 41.3083 201.362 41.4175 200.344 41.4175C199.242 41.4175 198.074 41.3083 197.252 40.9408Z" fill="#979797"/>
<path d="M213.863 32.5874C213.863 29.7955 213.863 29.2769 213.842 28.692C213.799 28.0639 213.626 27.8694 213.02 27.696C212.869 27.6533 212.544 27.6321 212.263 27.6321C212.069 27.6321 211.939 27.567 211.939 27.4363C211.939 27.3064 212.09 27.2643 212.371 27.2643C213.367 27.2643 214.578 27.3064 215.118 27.3064C215.723 27.3064 219.942 27.328 220.31 27.3064C220.656 27.2853 220.959 27.2202 221.11 27.199C221.22 27.1765 221.327 27.1123 221.413 27.1123C221.522 27.1123 221.543 27.199 221.543 27.2853C221.543 27.4152 221.435 27.6321 221.392 28.4754C221.37 28.6704 221.327 29.4702 221.283 29.6872C221.262 29.7734 221.22 29.99 221.068 29.99C220.938 29.99 220.916 29.9042 220.916 29.7523C220.916 29.6221 220.894 29.2982 220.786 29.0811C220.635 28.7576 220.484 28.4966 219.531 28.4103C219.207 28.3671 216.936 28.3245 216.546 28.3245C216.459 28.3245 216.417 28.3892 216.417 28.4966V33.0419C216.417 33.1499 216.438 33.2369 216.546 33.2369C216.979 33.2369 219.445 33.2369 219.878 33.1934C220.332 33.1499 220.612 33.107 220.786 32.9117C220.938 32.7819 221.003 32.6741 221.089 32.6741C221.175 32.6741 221.241 32.7602 221.241 32.8686C221.241 32.9763 221.196 33.2796 221.089 34.2106C221.045 34.5784 221.003 35.3136 221.003 35.4444C221.003 35.5953 220.981 35.8549 220.807 35.8549C220.678 35.8549 220.635 35.7911 220.635 35.7039C220.612 35.5095 220.612 35.2713 220.57 35.0328C220.462 34.6648 220.223 34.384 219.51 34.3189C219.163 34.2752 217 34.2325 216.525 34.2325C216.438 34.2325 216.417 34.3189 216.417 34.4272V35.8986C216.417 36.5262 216.394 38.0834 216.417 38.6251C216.459 39.88 217.044 40.1622 218.991 40.1622C219.488 40.1622 220.288 40.1411 220.786 39.924C221.262 39.7071 221.478 39.3184 221.608 38.5614C221.651 38.3656 221.695 38.2792 221.824 38.2792C221.976 38.2792 221.997 38.5169 221.997 38.7124C221.997 39.123 221.846 40.3782 221.737 40.7462C221.608 41.2217 221.435 41.2217 220.721 41.2217C219.293 41.2217 218.147 41.2004 217.216 41.1564C216.287 41.1353 215.572 41.1143 215.011 41.1143C214.794 41.1143 214.382 41.1353 213.928 41.1353C213.474 41.1564 212.999 41.1789 212.609 41.1789C212.371 41.1789 212.242 41.1143 212.242 40.9844C212.242 40.8981 212.306 40.7898 212.544 40.7898C212.826 40.7898 213.042 40.7673 213.215 40.7247C213.604 40.638 213.711 40.2921 213.777 39.7506C213.863 38.9716 213.863 37.5223 213.863 35.8335V32.5874Z" fill="#979797"/>
</svg>
