<svg width="17" height="17" viewBox="0 0 17 17" fill="none" xmlns="http://www.w3.org/2000/svg">
<path d="M15 6.58333C15 6.99755 15.3358 7.33333 15.75 7.33333C16.1642 7.33333 16.5 6.99755 16.5 6.58333H15.75H15ZM9.91666 0C9.50245 0 9.16666 0.335786 9.16666 0.75C9.16666 1.16421 9.50245 1.5 9.91666 1.5V0.75V0ZM15.6228 1.38701L16.2911 1.04652L16.2911 1.04652L15.6228 1.38701ZM15.113 0.877159L15.4535 0.208904L15.4535 0.208904L15.113 0.877159ZM15.1137 2.447C15.4066 2.1541 15.4066 1.67923 15.1137 1.38634C14.8208 1.09344 14.3459 1.09344 14.053 1.38634L14.5833 1.91667L15.1137 2.447ZM7.71967 7.71967C7.42678 8.01256 7.42678 8.48744 7.71967 8.78033C8.01256 9.07322 8.48744 9.07322 8.78033 8.78033L8.25 8.25L7.71967 7.71967ZM2.30116 15.4404L2.64166 14.7721L2.64166 14.7721L2.30116 15.4404ZM1.05964 14.1988L0.391386 14.5393L0.391386 14.5393L1.05964 14.1988ZM12.9404 14.1988L12.2721 13.8583L12.2721 13.8583L12.9404 14.1988ZM11.6988 15.4404L11.3583 14.7721L11.3583 14.7721L11.6988 15.4404ZM2.30116 3.55964L1.96067 2.89139L1.96067 2.89139L2.30116 3.55964ZM1.05964 4.80116L0.391386 4.46067L0.391386 4.46067L1.05964 4.80116ZM7 4C7.41421 4 7.75 3.66421 7.75 3.25C7.75 2.83579 7.41421 2.5 7 2.5V3.25V4ZM14 9.5C14 9.08579 13.6642 8.75 13.25 8.75C12.8358 8.75 12.5 9.08579 12.5 9.5H13.25H14ZM15.75 6.58333H16.5V2.61667H15.75H15V6.58333H15.75ZM13.8833 0.75V0H9.91666V0.75V1.5H13.8833V0.75ZM15.75 2.61667H16.5C16.5 2.30234 16.5006 2.0215 16.4816 1.78933C16.4619 1.5484 16.4175 1.29465 16.2911 1.04652L15.6228 1.38701L14.9546 1.7275C14.9553 1.72894 14.9745 1.76331 14.9866 1.91148C14.9994 2.0684 15 2.27759 15 2.61667H15.75ZM13.8833 0.75V1.5C14.2224 1.5 14.4316 1.50058 14.5885 1.5134C14.7367 1.52551 14.7711 1.54469 14.7725 1.54541L15.113 0.877159L15.4535 0.208904C15.2053 0.082474 14.9516 0.03807 14.7107 0.0183857C14.4785 -0.000583275 14.1977 0 13.8833 0V0.75ZM15.6228 1.38701L16.2911 1.04652C16.1073 0.685877 15.8141 0.392663 15.4535 0.208904L15.113 0.877159L14.7725 1.54541C14.8509 1.58536 14.9146 1.6491 14.9546 1.7275L15.6228 1.38701ZM14.5833 1.91667L14.053 1.38634L7.71967 7.71967L8.25 8.25L8.78033 8.78033L15.1137 2.447L14.5833 1.91667ZM8.70454 15.75V15H5.29545V15.75V16.5H8.70454V15.75ZM0.75 11.2045H1.5V7.79545H0.75H0V11.2045H0.75ZM5.29545 15.75V15C4.48755 15 3.92673 14.9994 3.49063 14.9638C3.06328 14.9289 2.82216 14.8641 2.64166 14.7721L2.30116 15.4404L1.96067 16.1086C2.38787 16.3263 2.84837 16.4163 3.36848 16.4588C3.87983 16.5006 4.5123 16.5 5.29545 16.5V15.75ZM0.75 11.2045H0C0 11.9877 -0.00058328 12.6202 0.0411959 13.1315C0.0836904 13.6516 0.173715 14.1121 0.391386 14.5393L1.05964 14.1988L1.7279 13.8583C1.63593 13.6778 1.57113 13.4367 1.53621 13.0094C1.50058 12.5733 1.5 12.0124 1.5 11.2045H0.75ZM2.30116 15.4404L2.64166 14.7721C2.24823 14.5716 1.92836 14.2518 1.7279 13.8583L1.05964 14.1988L0.391386 14.5393C0.735658 15.215 1.285 15.7643 1.96067 16.1086L2.30116 15.4404ZM13.25 11.2045H12.5C12.5 12.0124 12.4994 12.5733 12.4638 13.0094C12.4289 13.4367 12.3641 13.6778 12.2721 13.8583L12.9404 14.1988L13.6086 14.5393C13.8263 14.1121 13.9163 13.6516 13.9588 13.1315C14.0006 12.6202 14 11.9877 14 11.2045H13.25ZM8.70454 15.75V16.5C9.4877 16.5 10.1202 16.5006 10.6315 16.4588C11.1516 16.4163 11.6121 16.3263 12.0393 16.1086L11.6988 15.4404L11.3583 14.7721C11.1778 14.8641 10.9367 14.9289 10.5094 14.9638C10.0733 14.9994 9.51245 15 8.70454 15V15.75ZM12.9404 14.1988L12.2721 13.8583C12.0716 14.2518 11.7518 14.5716 11.3583 14.7721L11.6988 15.4404L12.0393 16.1086C12.715 15.7643 13.2643 15.215 13.6086 14.5393L12.9404 14.1988ZM5.29545 3.25V2.5C4.5123 2.5 3.87983 2.49942 3.36848 2.5412C2.84837 2.58369 2.38787 2.67371 1.96067 2.89139L2.30116 3.55964L2.64166 4.2279C2.82216 4.13593 3.06328 4.07113 3.49062 4.03621C3.92673 4.00058 4.48755 4 5.29545 4V3.25ZM0.75 7.79545H1.5C1.5 6.98755 1.50058 6.42673 1.53621 5.99062C1.57113 5.56328 1.63593 5.32216 1.7279 5.14166L1.05964 4.80116L0.391386 4.46067C0.173715 4.88787 0.0836904 5.34837 0.0411959 5.86848C-0.000583279 6.37983 0 7.0123 0 7.79545H0.75ZM2.30116 3.55964L1.96067 2.89139C1.285 3.23566 0.735658 3.785 0.391386 4.46067L1.05964 4.80116L1.7279 5.14166C1.92836 4.74823 2.24823 4.42836 2.64166 4.2279L2.30116 3.55964ZM5.29545 3.25V4H7V3.25V2.5H5.29545V3.25ZM13.25 9.5H12.5V11.2045H13.25H14V9.5H13.25Z" fill="#D3AD7F"/>
</svg>
