<svg width="81" height="47" viewBox="0 0 81 47" fill="none" xmlns="http://www.w3.org/2000/svg">
<path d="M74.0721 0.15269C73.7529 0.399905 73.6935 0.856785 73.9407 1.17597C74.3098 1.65144 74.0598 2.48024 73.772 3.4342L73.7717 3.43534C73.296 5.0219 72.7453 6.86506 74.0439 8.91476C74.263 9.25586 74.7136 9.35599 75.0547 9.14007C75.3958 8.92102 75.496 8.4704 75.28 8.1293C74.3381 6.64288 74.7856 5.14081 75.1736 3.85154L75.1739 3.85059C75.5743 2.51477 75.9213 1.35722 75.0954 0.284121C74.8482 -0.0350688 74.3913 -0.0945258 74.0721 0.15269Z" fill="#D3AD7F"/>
<path d="M61.9147 0.15269C61.5955 0.399905 61.5361 0.856785 61.7833 1.17597C62.1494 1.65163 61.9022 2.4809 61.6143 3.43534C61.1387 5.0219 60.5879 6.86506 61.8866 8.91476C62.1056 9.25586 62.5562 9.35599 62.8973 9.14007C63.2384 8.92102 63.3386 8.4704 63.1227 8.1293C62.1807 6.64288 62.6282 5.14081 63.0163 3.85154L63.0165 3.85059C63.417 2.51477 63.764 1.35722 62.938 0.284121C62.6908 -0.0350688 62.2339 -0.0945258 61.9147 0.15269Z" fill="#D3AD7F"/>
<path d="M67.995 0.15269C67.6758 0.399905 67.6163 0.856785 67.8636 1.17597C68.2297 1.65163 67.9825 2.4809 67.6946 3.43534L67.6936 3.43857C67.2182 5.0244 66.6659 6.86645 67.9668 8.91476C68.1859 9.25586 68.6365 9.35599 68.9776 9.14007C69.3187 8.92102 69.4188 8.4704 69.2029 8.1293C68.261 6.64288 68.7085 5.14081 69.0965 3.85154L69.0968 3.85059C69.4972 2.51477 69.8442 1.35722 69.0183 0.284121C68.7711 -0.0350688 68.3142 -0.0945258 67.995 0.15269Z" fill="#D3AD7F"/>
<path d="M6.8481 31.1125C7.49487 31.1125 8.13212 31.1125 8.75987 31.1125C9.40663 31.1125 10.0534 31.0935 10.7002 31.0554C10.9475 31.0174 11.1852 30.9889 11.4135 30.9698C11.6418 30.9318 11.8796 30.8747 12.1269 30.7986C13.0209 30.6084 13.9245 30.3041 14.8376 29.8856C15.7506 29.448 16.5781 28.9249 17.32 28.3162C18.0809 27.6885 18.7277 26.9751 19.2603 26.1762C19.7929 25.3582 20.1353 24.4737 20.2875 23.5225C20.3446 23.1991 20.3636 22.8853 20.3446 22.5809C20.3446 22.2575 20.3256 21.9341 20.2875 21.6108C20.1924 21.0211 20.0117 20.4694 19.7454 19.9558C19.4791 19.4232 19.1557 18.9286 18.7752 18.472C18.3948 18.0155 17.9668 17.6065 17.4912 17.2451C17.0156 16.8646 16.521 16.5318 16.0074 16.2464C15.9694 16.2084 15.9314 16.1893 15.8933 16.1893C15.8743 16.1703 15.8458 16.1418 15.8077 16.1037C14.7044 15.495 13.544 15.0385 12.3266 14.7341C11.1091 14.4298 9.87268 14.2966 8.6172 14.3347H7.41878V13.7354H10.0439C10.7858 13.7354 11.5086 13.6498 12.2125 13.4786C13.4299 13.1553 14.3715 12.5941 15.0373 11.7951C15.7031 10.9772 15.9789 9.93094 15.8648 8.65643C15.8077 7.83846 15.608 7.18219 15.2656 6.6876C14.9232 6.17399 14.4952 5.77452 13.9815 5.48918C13.4679 5.20385 12.8782 5.01362 12.2125 4.91851C11.5657 4.8234 10.8904 4.77584 10.1866 4.77584C9.88219 4.77584 9.53028 4.78535 9.1308 4.80437C8.75035 4.80437 8.38893 4.80437 8.04652 4.80437C7.64705 4.82339 7.24758 4.83291 6.8481 4.83291V31.1125ZM2.31124 8.31403C2.27319 7.57215 2.17808 6.97294 2.0259 6.5164C1.87372 6.05986 1.68349 5.70794 1.45522 5.46065C1.24597 5.21336 1.00819 5.05166 0.741878 4.97557C0.494585 4.88046 0.247293 4.83291 0 4.83291V4.20516H11.1567C12.9068 4.09103 14.4286 4.20516 15.7221 4.54757C17.0156 4.88997 18.0524 5.37505 18.8323 6.00279C19.6312 6.61151 20.1639 7.31534 20.4302 8.11429C20.6965 8.89421 20.6584 9.66463 20.316 10.4255C19.9927 11.1864 19.3554 11.8998 18.4043 12.5656C17.4722 13.2123 16.1977 13.6974 14.5808 14.0208C16.7683 14.5344 18.5755 15.1907 20.0022 15.9896C21.4289 16.7695 22.5322 17.6255 23.3121 18.5577C24.092 19.4898 24.5771 20.4694 24.7673 21.4966C24.9575 22.5048 24.9005 23.5035 24.5961 24.4927C24.2917 25.4628 23.7781 26.3949 23.0553 27.289C22.3324 28.164 21.4384 28.9344 20.3731 29.6002C19.3269 30.247 18.138 30.7606 16.8064 31.141C15.4938 31.5215 14.0957 31.6927 12.6119 31.6547H0.0570675V31.084C0.22827 31.084 0.428006 31.0364 0.656277 30.9413C0.903569 30.8462 1.14135 30.6655 1.36962 30.3992C1.59789 30.1328 1.79763 29.7714 1.96883 29.3149C2.15905 28.8583 2.27319 28.2782 2.31124 27.5743V8.31403Z" fill="#FFF6EB"/>
<path d="M31.7639 14.1634V14.2776C31.8019 14.1825 31.8305 14.1064 31.8495 14.0493C31.8875 13.9732 31.9256 13.8876 31.9636 13.7925L31.7639 14.1634ZM55.5325 18.5862C55.5135 17.8063 55.3803 17.0168 55.133 16.2179C54.8857 15.4189 54.5243 14.6961 54.0487 14.0493C53.5732 13.3835 52.993 12.8414 52.3082 12.4229C51.6424 12.0044 50.8625 11.7951 49.9684 11.7951C49.0744 11.7951 48.2754 12.0139 47.5716 12.4514C46.8868 12.8699 46.2781 13.4121 45.7454 14.0778C45.2318 14.7246 44.8038 15.4475 44.4614 16.2464C44.119 17.0454 43.8622 17.8253 43.691 18.5862H55.5325ZM24.9443 31.6547V31.084C25.1916 31.084 25.4484 31.0459 25.7147 30.9698C25.981 30.8938 26.2283 30.7416 26.4566 30.5133C26.6849 30.266 26.8656 29.9141 26.9987 29.4576C27.1509 28.982 27.2175 28.3542 27.1985 27.5743V15.4475C27.1985 14.1349 27.0273 13.2123 26.6849 12.6797C26.3615 12.128 25.7908 11.8522 24.9728 11.8522V11.3101H31.7639V14.1634C31.84 14.0113 31.9161 13.8686 31.9921 13.7354C32.0682 13.6023 32.1633 13.4596 32.2775 13.3074V13.336L32.306 13.3074C32.8006 12.5275 33.4474 11.9378 34.2463 11.5383C35.0453 11.1389 35.9013 10.9391 36.8143 10.9391C37.9177 10.9391 38.8022 11.0438 39.468 11.253C40.1528 11.4623 40.6664 11.7286 41.0088 12.052C41.3702 12.3563 41.589 12.6892 41.6651 13.0506C41.7412 13.4121 41.7127 13.7545 41.5795 14.0778C41.4654 14.3822 41.2846 14.639 41.0373 14.8483C40.7901 15.0575 40.5142 15.1621 40.2099 15.1621L39.1541 15.1051C39.4204 14.7056 39.5251 14.2871 39.468 13.8496C39.4109 13.4121 39.2397 13.0126 38.9544 12.6512C38.6881 12.2707 38.3171 11.9663 37.8416 11.7381C37.385 11.4908 36.8809 11.3671 36.3293 11.3671C35.8727 11.3671 35.4257 11.4527 34.9882 11.6239C34.5697 11.7951 34.1797 12.0329 33.8183 12.3373C33.4569 12.6226 33.124 12.9555 32.8196 13.336C32.5343 13.6974 32.306 14.0778 32.1348 14.4773C31.9826 14.8768 31.9256 15.3048 31.9636 15.7613C32.0207 16.1989 32.2109 16.5603 32.5343 16.8456C32.8767 17.15 33.3332 17.4163 33.9039 17.6446C34.4936 17.8538 35.1213 18.025 35.7871 18.1582C36.4719 18.2913 37.1663 18.396 37.8701 18.472C38.5739 18.5291 39.2207 18.5672 39.8104 18.5862C40.1148 17.616 40.5523 16.6934 41.1229 15.8184C41.7126 14.9434 42.4355 14.1825 43.2915 13.5357C44.1475 12.8699 45.1272 12.3468 46.2305 11.9663C47.3528 11.5669 48.5988 11.3671 49.9684 11.3671C50.8625 11.3671 51.766 11.5574 52.6791 11.9378C53.6112 12.3183 54.4482 12.8509 55.1901 13.5357C55.932 14.2015 56.5407 15.0004 57.0163 15.9325C57.4918 16.8646 57.7296 17.8919 57.7296 19.0142H43.6054C43.5293 19.4517 43.4722 19.8797 43.4342 20.2982C43.4152 20.6977 43.4057 21.1162 43.4057 21.5537C43.4057 23.1135 43.6054 24.5022 44.0049 25.7196C44.4043 26.918 44.937 27.9358 45.6028 28.7727C46.2685 29.6097 47.0485 30.247 47.9425 30.6845C48.8366 31.122 49.7782 31.3408 50.7674 31.3408C51.3951 31.3408 52.0419 31.2457 52.7077 31.0554C53.3734 30.8462 54.0107 30.5704 54.6194 30.228C55.2281 29.8856 55.7893 29.4766 56.3029 29.001C56.8165 28.5254 57.235 28.0118 57.5584 27.4602L57.9579 27.6885C57.5964 28.2591 57.1399 28.7918 56.5883 29.2863C56.0556 29.7809 55.4659 30.2185 54.8192 30.5989C54.1724 30.9603 53.4971 31.2457 52.7933 31.4549C52.1085 31.6642 51.4236 31.7688 50.7388 31.7688C48.4561 31.7688 46.5253 31.3788 44.9465 30.5989C43.3676 29.8 42.1216 28.7823 41.2086 27.5458C40.3145 26.3093 39.7438 24.9397 39.4965 23.4369C39.2492 21.9341 39.3158 20.4599 39.6963 19.0142C39.0305 18.9952 38.2981 18.9571 37.4992 18.9001C36.7002 18.824 35.9203 18.7098 35.1594 18.5577C34.4175 18.4055 33.7327 18.1962 33.105 17.9299C32.4962 17.6446 32.0492 17.2831 31.7639 16.8456V28.2021C31.84 29.3244 32.0682 30.0853 32.4487 30.4848C32.8291 30.8842 33.3523 31.0935 34.018 31.1125V31.6547H24.9443Z" fill="#FFF6EB"/>
<path d="M57.745 13.3074C57.4406 12.7938 57.0221 12.4134 56.4895 12.1661C55.9759 11.8998 55.5003 11.7666 55.0628 11.7666V11.3101H61.8824C62.0155 11.7856 62.2248 12.5275 62.5101 13.5357C62.8145 14.5249 63.1474 15.6282 63.5088 16.8456C63.8702 18.044 64.2317 19.2805 64.5931 20.555C64.9735 21.8105 65.3159 22.9423 65.6203 23.9505C65.8676 23.1516 66.1149 22.3241 66.3622 21.4681C66.6285 20.5931 66.8663 19.7941 67.0755 19.0713C67.3418 18.1962 67.5986 17.3402 67.8459 16.5032L67.5606 15.5616C67.4084 15.029 67.2467 14.5534 67.0755 14.1349C66.9233 13.6974 66.7521 13.3169 66.5619 12.9936C66.3146 12.518 65.9247 12.1946 65.392 12.0234C64.8594 11.8522 64.3838 11.7666 63.9653 11.7666V11.3101H73.1247V11.7666C72.9154 11.7666 72.7062 11.7856 72.4969 11.8237C72.2877 11.8427 72.0975 11.8903 71.9263 11.9663C71.7741 12.0424 71.6599 12.1566 71.5839 12.3088C71.5078 12.4609 71.4887 12.6702 71.5268 12.9365C71.6029 13.2789 71.679 13.6689 71.7551 14.1064C71.8311 14.5249 71.9453 15.01 72.0975 15.5616C72.4018 16.5888 72.7062 17.6065 73.0106 18.6147C73.2769 19.4707 73.5527 20.3838 73.838 21.354C74.1234 22.3051 74.3802 23.1801 74.6084 23.9791C74.8177 23.2562 75.046 22.4763 75.2933 21.6393C75.5596 20.7833 75.8164 19.9273 76.0637 19.0713C76.33 18.1962 76.5868 17.3402 76.8341 16.5032C77.0814 15.6472 77.3096 14.8768 77.5189 14.192C77.7281 13.4881 77.8993 12.8794 78.0325 12.3658C78.1847 11.8522 78.2893 11.5003 78.3464 11.3101H81V11.7666C80.7527 11.7666 80.4959 11.7761 80.2296 11.7951C79.9823 11.7951 79.7445 11.8522 79.5162 11.9663C79.288 12.0615 79.0692 12.2327 78.86 12.48C78.6507 12.7082 78.4605 13.0411 78.2893 13.4786C78.023 14.0683 77.7757 14.7627 77.5474 15.5616C77.1479 16.8932 76.7485 18.2343 76.349 19.5849C76.0066 20.7643 75.6261 22.0388 75.2076 23.4084C74.8082 24.759 74.4277 26.0335 74.0663 27.2319C73.8761 27.8406 73.6954 28.4208 73.5242 28.9725C73.372 29.5051 73.2388 29.9712 73.1247 30.3706C72.9725 30.8462 72.8393 31.2742 72.7252 31.6547H72.2972L68.0742 17.188C67.903 17.7397 67.7223 18.3294 67.5321 18.9571C67.3799 19.5088 67.1992 20.1365 66.9899 20.8404C66.7807 21.5252 66.5524 22.267 66.3051 23.066C66.0007 24.0742 65.6964 25.0824 65.392 26.0906C65.1067 27.0988 64.8404 28.0214 64.5931 28.8583C64.3078 29.8285 64.0319 30.7606 63.7656 31.6547H63.3376C63.2044 31.2171 63.0618 30.7321 62.9096 30.1994C62.7764 29.7619 62.6147 29.2388 62.4245 28.6301C62.2533 28.0214 62.0631 27.3651 61.8538 26.6612C61.5114 25.4628 61.1405 24.2168 60.741 22.9233C60.3606 21.6298 60.0087 20.4409 59.6853 19.3566C59.3048 18.0631 58.9339 16.7981 58.5725 15.5616C58.4203 15.1241 58.2776 14.7151 58.1445 14.3347C58.0303 13.9542 57.8972 13.6118 57.745 13.3074Z" fill="#FFF6EB"/>
<path d="M37.4693 24.9671C37.3596 25.6617 37.1098 26.2222 36.7198 26.6488C36.3299 27.0753 35.8546 27.4104 35.2941 27.6541C34.7335 27.8857 34.1059 28.038 33.4113 28.1111C32.7166 28.1842 32.0037 28.2208 31.2726 28.2208C30.6633 29.7806 30.0479 31.3039 29.4264 32.7907C28.8048 34.2774 28.1285 35.7702 27.3973 37.2691C27.0561 37.9759 26.6722 38.6888 26.2457 39.4078C25.8314 40.1146 25.3683 40.7605 24.8565 41.3454C24.3447 41.9182 23.778 42.3813 23.1565 42.7347C22.535 43.0881 21.8526 43.2587 21.1092 43.2465C20.4877 43.2343 19.9698 43.0637 19.5555 42.7347C19.1411 42.4056 18.8121 41.9547 18.5684 41.382C18.3246 40.7727 18.1845 40.0902 18.1479 39.3347C18.1114 38.567 18.1357 37.8602 18.2211 37.2143H18.7512C18.7146 37.5189 18.6841 37.8419 18.6598 38.1831C18.6354 38.5243 18.6293 38.8716 18.6415 39.225C18.6659 39.5784 18.7085 39.9257 18.7694 40.2669C18.8304 40.596 18.9218 40.9067 19.0436 41.1992C19.1289 41.4064 19.2386 41.6074 19.3727 41.8024C19.5189 41.9974 19.6834 42.168 19.8662 42.3142C20.049 42.4605 20.244 42.5763 20.4511 42.6616C20.6705 42.7347 20.902 42.753 21.1458 42.7164C21.4626 42.6798 21.7855 42.4788 22.1146 42.1132C22.4436 41.7354 22.7665 41.2723 23.0834 40.7239C23.4124 40.1756 23.7232 39.5845 24.0156 38.9508C24.3081 38.305 24.5762 37.6956 24.8199 37.1229C25.4658 35.5874 26.0995 34.0824 26.721 32.6079C27.3425 31.1211 28.031 29.6283 28.7866 28.1294C28.1773 28.0928 27.6045 28.0624 27.0683 28.038C26.5321 28.0136 26.0568 28.0197 25.6425 28.0563C25.2404 28.0928 24.9052 28.172 24.6371 28.2939C24.3812 28.4036 24.2289 28.5803 24.1801 28.824L23.5952 28.8057C23.7171 28.0989 23.9852 27.5384 24.3995 27.124C24.826 26.6975 25.3439 26.3807 25.9533 26.1735C26.5748 25.9541 27.2572 25.8201 28.0006 25.7713C28.7561 25.7104 29.5177 25.686 30.2855 25.6982C31.0654 25.7104 31.827 25.7409 32.5704 25.7896C33.3138 25.8262 33.9901 25.8384 34.5994 25.8262C35.2087 25.8018 35.7206 25.7348 36.1349 25.6251C36.5492 25.5032 36.8173 25.2839 36.9392 24.9671H37.4693Z" fill="#D3AD7F"/>
<path d="M30.6388 42.5336C30.9191 42.5336 31.2786 42.3813 31.7173 42.0766C32.156 41.772 32.6312 41.3698 33.1431 40.8702C33.6549 40.3705 34.1911 39.8039 34.7517 39.1702C35.3122 38.5243 35.8606 37.8723 36.3968 37.2143H37.0732C36.5004 37.9455 35.9033 38.6705 35.2818 39.3895C34.6603 40.1085 34.051 40.7544 33.4538 41.3272C32.8689 41.8999 32.3083 42.363 31.7721 42.7164C31.2359 43.0698 30.7667 43.2465 30.3646 43.2465C29.9381 43.2465 29.6212 43.1429 29.4141 42.9357C29.2069 42.7164 29.0911 42.4239 29.0668 42.0583C29.0302 41.6806 29.0729 41.2419 29.1947 40.7422C29.3166 40.2426 29.4872 39.7125 29.7065 39.1519C29.9259 38.5913 30.1818 38.0125 30.4743 37.4154C30.7667 36.806 31.0714 36.2089 31.3882 35.624C31.6685 35.1 31.9488 34.6003 32.2291 34.1251C32.5094 33.6376 32.7714 33.1928 33.0151 32.7907C33.2588 32.3885 33.4721 32.0412 33.6549 31.7487C33.8377 31.4441 33.9778 31.2064 34.0753 31.0358H36.7076C36.6344 31.243 36.5065 31.5355 36.3237 31.9132C36.1409 32.291 35.9276 32.7175 35.6839 33.1928C35.4402 33.6559 35.1782 34.1494 34.8979 34.6734C34.6176 35.1974 34.3373 35.7093 34.057 36.2089C33.9839 36.3551 33.8377 36.6111 33.6183 36.9766C33.4112 37.3422 33.1674 37.7627 32.8872 38.2379C32.6191 38.701 32.3388 39.1885 32.0463 39.7003C31.766 40.1999 31.5101 40.663 31.2786 41.0895C31.0592 41.5039 30.8886 41.8512 30.7667 42.1314C30.6327 42.3995 30.59 42.5336 30.6388 42.5336ZM38.7549 25.4972C39.0108 25.5825 39.157 25.7653 39.1936 26.0455C39.2301 26.3258 39.1814 26.6488 39.0473 27.0143C38.9255 27.3677 38.7427 27.7394 38.4989 28.1294C38.2552 28.5072 37.9749 28.8484 37.6581 29.153C37.3534 29.4455 37.0366 29.6771 36.7076 29.8477C36.3785 30.0061 36.0678 30.0366 35.7753 29.9391C35.4585 29.8416 35.2696 29.6527 35.2086 29.3724C35.1477 29.0799 35.1782 28.757 35.3 28.4036C35.4219 28.038 35.6108 27.6663 35.8667 27.2885C36.1348 26.8986 36.4334 26.5574 36.7624 26.2649C37.0914 25.9724 37.4327 25.747 37.7861 25.5886C38.1395 25.4301 38.4624 25.3997 38.7549 25.4972Z" fill="#D3AD7F"/>
<path d="M54.3262 37.2143C53.7535 37.9455 53.1564 38.6705 52.5349 39.3895C51.9255 40.1085 51.3223 40.7544 50.7252 41.3272C50.1281 41.8999 49.5614 42.363 49.0252 42.7164C48.5012 43.0698 48.0381 43.2465 47.636 43.2465C47.0876 43.2465 46.6976 43.0942 46.4661 42.7895C46.2467 42.4849 46.1431 42.0766 46.1553 41.5648C46.1797 41.053 46.2955 40.4741 46.5026 39.8282C46.722 39.1702 46.984 38.4938 47.2887 37.7992C47.6055 37.1046 47.9467 36.4161 48.3123 35.7336C48.6779 35.0512 49.0252 34.4297 49.3542 33.8691C49.6833 33.2964 49.9696 32.8211 50.2134 32.4433C50.4571 32.0534 50.6155 31.8036 50.6886 31.6939C50.5058 31.6939 50.256 31.7853 49.9392 31.9681C49.6345 32.1387 49.2933 32.3702 48.9155 32.6627C48.5499 32.9552 48.16 33.2842 47.7456 33.6498C47.3435 34.0154 46.9474 34.3871 46.5575 34.7648C46.1797 35.1426 45.8202 35.5082 45.479 35.8616C45.15 36.2028 44.8758 36.4953 44.6564 36.739C44.3152 37.4458 43.9557 38.1465 43.5779 38.8412C43.2123 39.5358 42.865 40.1816 42.536 40.7788C42.2192 41.3637 41.945 41.8755 41.7134 42.3142C41.4819 42.753 41.3478 43.0637 41.3113 43.2465H39.7758C39.6418 42.7834 39.6661 42.1802 39.8489 41.4368C40.0317 40.6813 40.2998 39.877 40.6532 39.0239C41.0066 38.1587 41.4088 37.2935 41.8597 36.4283C42.3105 35.563 42.7371 34.7831 43.1392 34.0885C43.5414 33.3817 43.8765 32.8089 44.1446 32.3702C44.4249 31.9193 44.565 31.6939 44.565 31.6939C44.3822 31.6451 44.1385 31.7 43.8338 31.8584C43.5292 32.0168 43.188 32.2423 42.8102 32.5347C42.4324 32.8272 42.0364 33.1684 41.622 33.5584C41.2199 33.9362 40.8238 34.32 40.4339 34.71C40.0439 35.1 39.6783 35.4777 39.3371 35.8433C39.0081 36.2089 38.7339 36.5136 38.5145 36.7573C37.9539 37.8419 37.3995 38.9204 36.8511 39.9928C36.3149 41.0652 35.7726 42.1497 35.2242 43.2465H32.4275C33.4146 41.2236 34.4138 39.2128 35.4253 37.2143C36.4246 35.2035 37.4665 33.1441 38.5511 31.0358H41.5489L39.4468 34.9476C39.8611 34.5089 40.312 34.0641 40.7994 33.6132C41.2869 33.1501 41.7683 32.7297 42.2435 32.3519C42.731 31.962 43.2001 31.6451 43.651 31.4014C44.1141 31.1577 44.5224 31.0358 44.8758 31.0358C45.3023 31.0358 45.6069 31.1516 45.7897 31.3831C45.9847 31.6025 46.0883 31.9011 46.1005 32.2788C46.1127 32.6444 46.0456 33.0831 45.8994 33.5949C45.7654 34.0946 45.5826 34.6308 45.351 35.2035C45.7654 34.7648 46.2224 34.3018 46.722 33.8143C47.2216 33.3147 47.7274 32.8638 48.2392 32.4616C48.751 32.0473 49.2446 31.7061 49.7198 31.438C50.2073 31.1699 50.6399 31.0358 51.0177 31.0358C51.566 31.0358 51.9255 31.2003 52.0961 31.5294C52.2789 31.8584 52.3277 32.2971 52.2424 32.8455C52.1571 33.3817 51.9682 33.9971 51.6757 34.6917C51.3954 35.3741 51.0725 36.0749 50.7069 36.7939C50.3535 37.5007 49.9818 38.2014 49.5919 38.896C49.2019 39.5784 48.8607 40.1938 48.5682 40.7422C48.2757 41.2784 48.0564 41.711 47.9101 42.0401C47.7761 42.3691 47.7761 42.5336 47.9101 42.5336C48.1904 42.5336 48.5438 42.3813 48.9704 42.0766C49.4091 41.772 49.8843 41.3698 50.3962 40.8702C50.908 40.3705 51.4442 39.8039 52.0047 39.1702C52.5653 38.5243 53.1137 37.8723 53.6499 37.2143H54.3262Z" fill="#D3AD7F"/>
<path d="M63.2377 37.2143C62.7747 37.7992 62.2141 38.4451 61.556 39.1519C60.9102 39.8465 60.2155 40.4985 59.4722 41.1078C58.741 41.7171 57.9916 42.2289 57.2238 42.6433C56.4561 43.0454 55.7371 43.2465 55.0668 43.2465C54.2625 43.2465 53.6228 43.0759 53.1475 42.7347C52.6844 42.3813 52.3615 41.9182 52.1787 41.3454C51.9959 40.7727 51.9471 40.1207 52.0325 39.3895C52.1056 38.6584 52.2823 37.915 52.5626 37.1594C52.8428 36.3917 53.2084 35.6422 53.6593 34.9111C54.1224 34.1799 54.6403 33.5279 55.2131 32.9552C55.798 32.3824 56.4317 31.9193 57.1141 31.5659C57.7966 31.2125 58.4973 31.0358 59.2163 31.0358C60.0206 31.0358 60.5994 31.2125 60.9528 31.5659C61.3062 31.9193 61.4707 32.358 61.4464 32.8821C61.422 33.4061 61.2331 33.9788 60.8797 34.6003C60.5385 35.2096 60.0754 35.7824 59.4905 36.3186C58.9177 36.8426 58.2414 37.2813 57.4614 37.6347C56.6937 37.9881 55.8711 38.1709 54.9937 38.1831C54.9328 38.3537 54.8597 38.5852 54.7744 38.8777C54.6891 39.158 54.6099 39.4627 54.5367 39.7917C54.4758 40.1085 54.4332 40.4315 54.4088 40.7605C54.3844 41.0895 54.4027 41.3881 54.4636 41.6562C54.5245 41.9121 54.6342 42.1254 54.7927 42.296C54.9633 42.4544 55.2131 42.5336 55.5421 42.5336C55.8711 42.5336 56.2428 42.4361 56.6572 42.2411C57.0837 42.0461 57.5163 41.7963 57.955 41.4917C58.4059 41.187 58.8568 40.8458 59.3077 40.468C59.7707 40.0781 60.2034 39.6881 60.6055 39.2981C61.0198 38.896 61.3915 38.5182 61.7206 38.1648C62.0618 37.7992 62.3421 37.4824 62.5614 37.2143H63.2377ZM59.8012 32.681C59.265 32.6444 58.7593 32.7967 58.284 33.138C57.8088 33.4792 57.3761 33.9057 56.9862 34.4175C56.5962 34.9172 56.2489 35.4534 55.9443 36.0261C55.6518 36.5867 55.4202 37.0863 55.2496 37.525C55.8224 37.525 56.3769 37.4093 56.9131 37.1777C57.4614 36.934 57.9611 36.6354 58.412 36.282C58.8629 35.9286 59.2467 35.5508 59.5636 35.1487C59.8926 34.7344 60.1302 34.3505 60.2765 33.9971C60.4227 33.6315 60.4593 33.3268 60.3862 33.0831C60.3252 32.8394 60.1302 32.7053 59.8012 32.681Z" fill="#D3AD7F"/>
</svg>
